<svg width="1112" height="625" viewBox="0 0 1112 625" fill="none" xmlns="http://www.w3.org/2000/svg">
<path d="M1112 589.5L1102 583.726V595.274L1112 589.5ZM-0.00201416 590.5H1103V588.5H-0.00201416V590.5Z" fill="url(#paint0_linear_15_10)"/>
<path d="M156.07 612.273C156.001 611.697 155.725 611.25 155.24 610.932C154.755 610.614 154.161 610.455 153.456 610.455C152.941 610.455 152.49 610.538 152.104 610.705C151.721 610.871 151.422 611.1 151.206 611.392C150.994 611.684 150.888 612.015 150.888 612.386C150.888 612.697 150.962 612.964 151.109 613.188C151.261 613.407 151.454 613.591 151.689 613.739C151.924 613.883 152.17 614.002 152.428 614.097C152.685 614.187 152.922 614.261 153.138 614.318L154.32 614.636C154.623 614.716 154.96 614.826 155.331 614.966C155.706 615.106 156.064 615.297 156.405 615.54C156.75 615.778 157.034 616.085 157.257 616.46C157.481 616.835 157.592 617.295 157.592 617.841C157.592 618.47 157.428 619.038 157.098 619.545C156.772 620.053 156.295 620.456 155.666 620.756C155.041 621.055 154.282 621.205 153.388 621.205C152.554 621.205 151.833 621.07 151.223 620.801C150.617 620.532 150.14 620.157 149.791 619.676C149.446 619.195 149.251 618.636 149.206 618H150.661C150.698 618.439 150.846 618.803 151.104 619.091C151.365 619.375 151.695 619.587 152.092 619.727C152.494 619.864 152.926 619.932 153.388 619.932C153.926 619.932 154.409 619.845 154.837 619.67C155.265 619.492 155.604 619.246 155.854 618.932C156.104 618.614 156.229 618.242 156.229 617.818C156.229 617.432 156.121 617.117 155.905 616.875C155.689 616.633 155.405 616.436 155.053 616.284C154.7 616.133 154.32 616 153.911 615.886L152.479 615.477C151.57 615.216 150.85 614.843 150.32 614.358C149.789 613.873 149.524 613.239 149.524 612.455C149.524 611.803 149.7 611.235 150.053 610.75C150.409 610.261 150.886 609.883 151.484 609.614C152.087 609.341 152.759 609.205 153.501 609.205C154.251 609.205 154.918 609.339 155.501 609.608C156.085 609.873 156.547 610.237 156.888 610.699C157.232 611.161 157.414 611.686 157.433 612.273H156.07ZM163.386 621.182C162.545 621.182 161.82 620.996 161.21 620.625C160.604 620.25 160.136 619.727 159.807 619.057C159.481 618.383 159.318 617.598 159.318 616.705C159.318 615.811 159.481 615.023 159.807 614.341C160.136 613.655 160.595 613.121 161.182 612.739C161.773 612.352 162.462 612.159 163.25 612.159C163.705 612.159 164.153 612.235 164.597 612.386C165.04 612.538 165.443 612.784 165.807 613.125C166.17 613.462 166.46 613.909 166.676 614.466C166.892 615.023 167 615.708 167 616.523V617.091H160.273V615.932H165.636C165.636 615.439 165.538 615 165.341 614.614C165.148 614.227 164.871 613.922 164.511 613.699C164.155 613.475 163.735 613.364 163.25 613.364C162.716 613.364 162.254 613.496 161.864 613.761C161.477 614.023 161.18 614.364 160.972 614.784C160.763 615.205 160.659 615.655 160.659 616.136V616.909C160.659 617.568 160.773 618.127 161 618.585C161.231 619.04 161.551 619.386 161.96 619.625C162.369 619.86 162.845 619.977 163.386 619.977C163.739 619.977 164.057 619.928 164.341 619.83C164.629 619.727 164.877 619.576 165.085 619.375C165.294 619.17 165.455 618.917 165.568 618.614L166.864 618.977C166.727 619.417 166.498 619.803 166.176 620.136C165.854 620.466 165.456 620.723 164.983 620.909C164.509 621.091 163.977 621.182 163.386 621.182ZM169.04 624.273V612.273H170.335V613.659H170.494C170.593 613.508 170.729 613.314 170.903 613.08C171.081 612.841 171.335 612.629 171.665 612.443C171.998 612.254 172.449 612.159 173.017 612.159C173.752 612.159 174.4 612.343 174.96 612.71C175.521 613.078 175.958 613.598 176.273 614.273C176.587 614.947 176.744 615.742 176.744 616.659C176.744 617.583 176.587 618.384 176.273 619.062C175.958 619.737 175.523 620.259 174.966 620.631C174.409 620.998 173.767 621.182 173.04 621.182C172.479 621.182 172.03 621.089 171.693 620.903C171.356 620.714 171.097 620.5 170.915 620.261C170.733 620.019 170.593 619.818 170.494 619.659H170.381V624.273H169.04ZM170.358 616.636C170.358 617.295 170.455 617.877 170.648 618.381C170.841 618.881 171.123 619.273 171.494 619.557C171.866 619.837 172.32 619.977 172.858 619.977C173.419 619.977 173.886 619.83 174.261 619.534C174.64 619.235 174.924 618.833 175.114 618.33C175.307 617.822 175.403 617.258 175.403 616.636C175.403 616.023 175.309 615.47 175.119 614.977C174.934 614.481 174.652 614.089 174.273 613.801C173.898 613.509 173.426 613.364 172.858 613.364C172.313 613.364 171.854 613.502 171.483 613.778C171.112 614.051 170.831 614.434 170.642 614.926C170.453 615.415 170.358 615.985 170.358 616.636ZM182.585 612.273V613.409H178.062V612.273H182.585ZM179.381 610.182H180.722V618.5C180.722 618.879 180.777 619.163 180.886 619.352C181 619.538 181.144 619.663 181.318 619.727C181.496 619.788 181.684 619.818 181.881 619.818C182.028 619.818 182.15 619.811 182.244 619.795C182.339 619.777 182.415 619.761 182.472 619.75L182.744 620.955C182.653 620.989 182.527 621.023 182.364 621.057C182.201 621.095 181.994 621.114 181.744 621.114C181.366 621.114 180.994 621.032 180.631 620.869C180.271 620.706 179.972 620.458 179.733 620.125C179.498 619.792 179.381 619.371 179.381 618.864V610.182ZM188.168 621.182C187.327 621.182 186.601 620.996 185.991 620.625C185.385 620.25 184.918 619.727 184.588 619.057C184.262 618.383 184.099 617.598 184.099 616.705C184.099 615.811 184.262 615.023 184.588 614.341C184.918 613.655 185.376 613.121 185.963 612.739C186.554 612.352 187.243 612.159 188.031 612.159C188.486 612.159 188.935 612.235 189.378 612.386C189.821 612.538 190.224 612.784 190.588 613.125C190.952 613.462 191.241 613.909 191.457 614.466C191.673 615.023 191.781 615.708 191.781 616.523V617.091H185.054V615.932H190.418C190.418 615.439 190.319 615 190.122 614.614C189.929 614.227 189.652 613.922 189.293 613.699C188.937 613.475 188.516 613.364 188.031 613.364C187.497 613.364 187.035 613.496 186.645 613.761C186.259 614.023 185.961 614.364 185.753 614.784C185.545 615.205 185.44 615.655 185.44 616.136V616.909C185.44 617.568 185.554 618.127 185.781 618.585C186.012 619.04 186.332 619.386 186.741 619.625C187.151 619.86 187.626 619.977 188.168 619.977C188.52 619.977 188.838 619.928 189.122 619.83C189.41 619.727 189.658 619.576 189.866 619.375C190.075 619.17 190.236 618.917 190.349 618.614L191.645 618.977C191.509 619.417 191.279 619.803 190.957 620.136C190.635 620.466 190.238 620.723 189.764 620.909C189.291 621.091 188.759 621.182 188.168 621.182ZM193.821 621V612.273H195.116V613.636H195.23C195.412 613.17 195.705 612.809 196.111 612.551C196.516 612.29 197.003 612.159 197.571 612.159C198.147 612.159 198.626 612.29 199.009 612.551C199.395 612.809 199.696 613.17 199.912 613.636H200.003C200.226 613.186 200.562 612.828 201.009 612.562C201.455 612.294 201.991 612.159 202.616 612.159C203.397 612.159 204.035 612.403 204.531 612.892C205.027 613.377 205.276 614.133 205.276 615.159V621H203.935V615.159C203.935 614.515 203.759 614.055 203.406 613.778C203.054 613.502 202.639 613.364 202.162 613.364C201.548 613.364 201.073 613.549 200.736 613.92C200.399 614.288 200.23 614.754 200.23 615.318V621H198.866V615.023C198.866 614.527 198.705 614.127 198.384 613.824C198.062 613.517 197.647 613.364 197.139 613.364C196.791 613.364 196.465 613.456 196.162 613.642C195.863 613.828 195.62 614.085 195.435 614.415C195.253 614.741 195.162 615.117 195.162 615.545V621H193.821ZM207.909 621V609.364H209.25V613.659H209.364C209.462 613.508 209.598 613.314 209.773 613.08C209.951 612.841 210.205 612.629 210.534 612.443C210.867 612.254 211.318 612.159 211.886 612.159C212.621 612.159 213.269 612.343 213.83 612.71C214.39 613.078 214.828 613.598 215.142 614.273C215.456 614.947 215.614 615.742 215.614 616.659C215.614 617.583 215.456 618.384 215.142 619.062C214.828 619.737 214.392 620.259 213.835 620.631C213.278 620.998 212.636 621.182 211.909 621.182C211.348 621.182 210.9 621.089 210.562 620.903C210.225 620.714 209.966 620.5 209.784 620.261C209.602 620.019 209.462 619.818 209.364 619.659H209.205V621H207.909ZM209.227 616.636C209.227 617.295 209.324 617.877 209.517 618.381C209.71 618.881 209.992 619.273 210.364 619.557C210.735 619.837 211.189 619.977 211.727 619.977C212.288 619.977 212.756 619.83 213.131 619.534C213.509 619.235 213.794 618.833 213.983 618.33C214.176 617.822 214.273 617.258 214.273 616.636C214.273 616.023 214.178 615.47 213.989 614.977C213.803 614.481 213.521 614.089 213.142 613.801C212.767 613.509 212.295 613.364 211.727 613.364C211.182 613.364 210.723 613.502 210.352 613.778C209.981 614.051 209.701 614.434 209.511 614.926C209.322 615.415 209.227 615.985 209.227 616.636ZM221.324 621.182C220.483 621.182 219.758 620.996 219.148 620.625C218.542 620.25 218.074 619.727 217.744 619.057C217.419 618.383 217.256 617.598 217.256 616.705C217.256 615.811 217.419 615.023 217.744 614.341C218.074 613.655 218.532 613.121 219.119 612.739C219.71 612.352 220.4 612.159 221.188 612.159C221.642 612.159 222.091 612.235 222.534 612.386C222.977 612.538 223.381 612.784 223.744 613.125C224.108 613.462 224.398 613.909 224.614 614.466C224.83 615.023 224.938 615.708 224.938 616.523V617.091H218.21V615.932H223.574C223.574 615.439 223.475 615 223.278 614.614C223.085 614.227 222.809 613.922 222.449 613.699C222.093 613.475 221.672 613.364 221.188 613.364C220.653 613.364 220.191 613.496 219.801 613.761C219.415 614.023 219.117 614.364 218.909 614.784C218.701 615.205 218.597 615.655 218.597 616.136V616.909C218.597 617.568 218.71 618.127 218.938 618.585C219.169 619.04 219.489 619.386 219.898 619.625C220.307 619.86 220.782 619.977 221.324 619.977C221.676 619.977 221.994 619.928 222.278 619.83C222.566 619.727 222.814 619.576 223.023 619.375C223.231 619.17 223.392 618.917 223.506 618.614L224.801 618.977C224.665 619.417 224.436 619.803 224.114 620.136C223.792 620.466 223.394 620.723 222.92 620.909C222.447 621.091 221.915 621.182 221.324 621.182ZM226.977 621V612.273H228.273V613.591H228.364C228.523 613.159 228.811 612.809 229.227 612.54C229.644 612.271 230.114 612.136 230.636 612.136C230.735 612.136 230.858 612.138 231.006 612.142C231.153 612.146 231.265 612.152 231.341 612.159V613.523C231.295 613.511 231.191 613.494 231.028 613.472C230.869 613.445 230.701 613.432 230.523 613.432C230.098 613.432 229.72 613.521 229.386 613.699C229.057 613.873 228.795 614.116 228.602 614.426C228.413 614.733 228.318 615.083 228.318 615.477V621H226.977Z" fill="black"/>
<path d="M422.414 621H418.823V609.364H422.573C423.702 609.364 424.668 609.597 425.471 610.062C426.274 610.525 426.889 611.189 427.317 612.057C427.746 612.92 427.96 613.955 427.96 615.159C427.96 616.371 427.744 617.415 427.312 618.29C426.88 619.161 426.251 619.831 425.425 620.301C424.6 620.767 423.596 621 422.414 621ZM420.232 619.75H422.323C423.285 619.75 424.083 619.564 424.715 619.193C425.348 618.822 425.819 618.294 426.13 617.608C426.441 616.922 426.596 616.106 426.596 615.159C426.596 614.22 426.442 613.411 426.136 612.733C425.829 612.051 425.371 611.528 424.761 611.165C424.151 610.797 423.391 610.614 422.482 610.614H420.232V619.75ZM433.8 621.182C432.96 621.182 432.234 620.996 431.624 620.625C431.018 620.25 430.55 619.727 430.221 619.057C429.895 618.383 429.732 617.598 429.732 616.705C429.732 615.811 429.895 615.023 430.221 614.341C430.55 613.655 431.009 613.121 431.596 612.739C432.187 612.352 432.876 612.159 433.664 612.159C434.119 612.159 434.567 612.235 435.011 612.386C435.454 612.538 435.857 612.784 436.221 613.125C436.585 613.462 436.874 613.909 437.09 614.466C437.306 615.023 437.414 615.708 437.414 616.523V617.091H430.687V615.932H436.05C436.05 615.439 435.952 615 435.755 614.614C435.562 614.227 435.285 613.922 434.925 613.699C434.569 613.475 434.149 613.364 433.664 613.364C433.13 613.364 432.668 613.496 432.278 613.761C431.891 614.023 431.594 614.364 431.386 614.784C431.177 615.205 431.073 615.655 431.073 616.136V616.909C431.073 617.568 431.187 618.127 431.414 618.585C431.645 619.04 431.965 619.386 432.374 619.625C432.783 619.86 433.259 619.977 433.8 619.977C434.153 619.977 434.471 619.928 434.755 619.83C435.043 619.727 435.291 619.576 435.499 619.375C435.708 619.17 435.869 618.917 435.982 618.614L437.278 618.977C437.141 619.417 436.912 619.803 436.59 620.136C436.268 620.466 435.871 620.723 435.397 620.909C434.924 621.091 434.391 621.182 433.8 621.182ZM442.999 621.182C442.181 621.182 441.477 620.989 440.886 620.602C440.295 620.216 439.84 619.684 439.522 619.006C439.204 618.328 439.045 617.553 439.045 616.682C439.045 615.795 439.208 615.013 439.533 614.335C439.863 613.653 440.321 613.121 440.908 612.739C441.499 612.352 442.189 612.159 442.977 612.159C443.59 612.159 444.143 612.273 444.636 612.5C445.128 612.727 445.531 613.045 445.846 613.455C446.16 613.864 446.355 614.341 446.431 614.886H445.09C444.988 614.489 444.761 614.136 444.408 613.83C444.06 613.519 443.59 613.364 442.999 613.364C442.477 613.364 442.018 613.5 441.624 613.773C441.234 614.042 440.929 614.422 440.71 614.915C440.494 615.403 440.386 615.977 440.386 616.636C440.386 617.311 440.492 617.898 440.704 618.398C440.92 618.898 441.223 619.286 441.613 619.562C442.007 619.839 442.469 619.977 442.999 619.977C443.348 619.977 443.664 619.917 443.948 619.795C444.232 619.674 444.473 619.5 444.67 619.273C444.867 619.045 445.007 618.773 445.09 618.455H446.431C446.355 618.97 446.168 619.434 445.869 619.847C445.573 620.256 445.181 620.581 444.692 620.824C444.208 621.062 443.643 621.182 442.999 621.182ZM452.05 621.182C451.21 621.182 450.484 620.996 449.874 620.625C449.268 620.25 448.8 619.727 448.471 619.057C448.145 618.383 447.982 617.598 447.982 616.705C447.982 615.811 448.145 615.023 448.471 614.341C448.8 613.655 449.259 613.121 449.846 612.739C450.437 612.352 451.126 612.159 451.914 612.159C452.369 612.159 452.817 612.235 453.261 612.386C453.704 612.538 454.107 612.784 454.471 613.125C454.835 613.462 455.124 613.909 455.34 614.466C455.556 615.023 455.664 615.708 455.664 616.523V617.091H448.937V615.932H454.3C454.3 615.439 454.202 615 454.005 614.614C453.812 614.227 453.535 613.922 453.175 613.699C452.819 613.475 452.399 613.364 451.914 613.364C451.38 613.364 450.918 613.496 450.528 613.761C450.141 614.023 449.844 614.364 449.636 614.784C449.427 615.205 449.323 615.655 449.323 616.136V616.909C449.323 617.568 449.437 618.127 449.664 618.585C449.895 619.04 450.215 619.386 450.624 619.625C451.033 619.86 451.509 619.977 452.05 619.977C452.403 619.977 452.721 619.928 453.005 619.83C453.293 619.727 453.541 619.576 453.749 619.375C453.958 619.17 454.119 618.917 454.232 618.614L455.528 618.977C455.391 619.417 455.162 619.803 454.84 620.136C454.518 620.466 454.121 620.723 453.647 620.909C453.174 621.091 452.641 621.182 452.05 621.182ZM457.704 621V612.273H458.999V613.636H459.113C459.295 613.17 459.588 612.809 459.994 612.551C460.399 612.29 460.886 612.159 461.454 612.159C462.03 612.159 462.509 612.29 462.891 612.551C463.278 612.809 463.579 613.17 463.795 613.636H463.886C464.109 613.186 464.444 612.828 464.891 612.562C465.338 612.294 465.874 612.159 466.499 612.159C467.28 612.159 467.918 612.403 468.414 612.892C468.91 613.377 469.158 614.133 469.158 615.159V621H467.817V615.159C467.817 614.515 467.641 614.055 467.289 613.778C466.937 613.502 466.522 613.364 466.045 613.364C465.431 613.364 464.956 613.549 464.619 613.92C464.281 614.288 464.113 614.754 464.113 615.318V621H462.749V615.023C462.749 614.527 462.588 614.127 462.266 613.824C461.944 613.517 461.53 613.364 461.022 613.364C460.674 613.364 460.348 613.456 460.045 613.642C459.746 613.828 459.503 614.085 459.317 614.415C459.136 614.741 459.045 615.117 459.045 615.545V621H457.704ZM471.792 621V609.364H473.133V613.659H473.246C473.345 613.508 473.481 613.314 473.656 613.08C473.834 612.841 474.087 612.629 474.417 612.443C474.75 612.254 475.201 612.159 475.769 612.159C476.504 612.159 477.152 612.343 477.712 612.71C478.273 613.078 478.71 613.598 479.025 614.273C479.339 614.947 479.496 615.742 479.496 616.659C479.496 617.583 479.339 618.384 479.025 619.062C478.71 619.737 478.275 620.259 477.718 620.631C477.161 620.998 476.519 621.182 475.792 621.182C475.231 621.182 474.782 621.089 474.445 620.903C474.108 620.714 473.849 620.5 473.667 620.261C473.485 620.019 473.345 619.818 473.246 619.659H473.087V621H471.792ZM473.11 616.636C473.11 617.295 473.207 617.877 473.4 618.381C473.593 618.881 473.875 619.273 474.246 619.557C474.618 619.837 475.072 619.977 475.61 619.977C476.171 619.977 476.638 619.83 477.013 619.534C477.392 619.235 477.676 618.833 477.866 618.33C478.059 617.822 478.156 617.258 478.156 616.636C478.156 616.023 478.061 615.47 477.871 614.977C477.686 614.481 477.404 614.089 477.025 613.801C476.65 613.509 476.178 613.364 475.61 613.364C475.065 613.364 474.606 613.502 474.235 613.778C473.864 614.051 473.584 614.434 473.394 614.926C473.205 615.415 473.11 615.985 473.11 616.636ZM485.207 621.182C484.366 621.182 483.64 620.996 483.031 620.625C482.424 620.25 481.957 619.727 481.627 619.057C481.301 618.383 481.138 617.598 481.138 616.705C481.138 615.811 481.301 615.023 481.627 614.341C481.957 613.655 482.415 613.121 483.002 612.739C483.593 612.352 484.282 612.159 485.07 612.159C485.525 612.159 485.974 612.235 486.417 612.386C486.86 612.538 487.263 612.784 487.627 613.125C487.991 613.462 488.281 613.909 488.496 614.466C488.712 615.023 488.82 615.708 488.82 616.523V617.091H482.093V615.932H487.457C487.457 615.439 487.358 615 487.161 614.614C486.968 614.227 486.692 613.922 486.332 613.699C485.976 613.475 485.555 613.364 485.07 613.364C484.536 613.364 484.074 613.496 483.684 613.761C483.298 614.023 483 614.364 482.792 614.784C482.584 615.205 482.479 615.655 482.479 616.136V616.909C482.479 617.568 482.593 618.127 482.82 618.585C483.051 619.04 483.371 619.386 483.781 619.625C484.19 619.86 484.665 619.977 485.207 619.977C485.559 619.977 485.877 619.928 486.161 619.83C486.449 619.727 486.697 619.576 486.906 619.375C487.114 619.17 487.275 618.917 487.388 618.614L488.684 618.977C488.548 619.417 488.318 619.803 487.996 620.136C487.674 620.466 487.277 620.723 486.803 620.909C486.33 621.091 485.798 621.182 485.207 621.182ZM490.86 621V612.273H492.156V613.591H492.246C492.406 613.159 492.693 612.809 493.11 612.54C493.527 612.271 493.996 612.136 494.519 612.136C494.618 612.136 494.741 612.138 494.888 612.142C495.036 612.146 495.148 612.152 495.224 612.159V613.523C495.178 613.511 495.074 613.494 494.911 613.472C494.752 613.445 494.584 613.432 494.406 613.432C493.981 613.432 493.603 613.521 493.269 613.699C492.94 613.873 492.678 614.116 492.485 614.426C492.296 614.733 492.201 615.083 492.201 615.477V621H490.86Z" fill="black"/>
<path d="M686.745 609.364H688.427L692.381 619.023H692.518L696.472 609.364H698.154V621H696.836V612.159H696.722L693.086 621H691.813L688.177 612.159H688.063V621H686.745V609.364ZM703.366 621.205C702.813 621.205 702.311 621.1 701.86 620.892C701.409 620.68 701.051 620.375 700.786 619.977C700.521 619.576 700.388 619.091 700.388 618.523C700.388 618.023 700.487 617.617 700.684 617.307C700.881 616.992 701.144 616.746 701.474 616.568C701.803 616.39 702.167 616.258 702.565 616.17C702.966 616.08 703.37 616.008 703.775 615.955C704.305 615.886 704.735 615.835 705.065 615.801C705.398 615.763 705.64 615.701 705.792 615.614C705.947 615.527 706.025 615.375 706.025 615.159V615.114C706.025 614.553 705.871 614.117 705.565 613.807C705.262 613.496 704.801 613.341 704.184 613.341C703.544 613.341 703.042 613.481 702.678 613.761C702.315 614.042 702.059 614.341 701.911 614.659L700.638 614.205C700.866 613.674 701.169 613.261 701.548 612.966C701.93 612.667 702.347 612.458 702.798 612.341C703.252 612.22 703.699 612.159 704.138 612.159C704.419 612.159 704.741 612.193 705.104 612.261C705.472 612.326 705.826 612.46 706.167 612.665C706.512 612.869 706.798 613.178 707.025 613.591C707.252 614.004 707.366 614.557 707.366 615.25V621H706.025V619.818H705.957C705.866 620.008 705.714 620.21 705.502 620.426C705.29 620.642 705.008 620.826 704.656 620.977C704.303 621.129 703.873 621.205 703.366 621.205ZM703.57 620C704.101 620 704.548 619.896 704.911 619.688C705.279 619.479 705.555 619.21 705.741 618.881C705.93 618.551 706.025 618.205 706.025 617.841V616.614C705.968 616.682 705.843 616.744 705.65 616.801C705.46 616.854 705.241 616.902 704.991 616.943C704.745 616.981 704.504 617.015 704.269 617.045C704.038 617.072 703.851 617.095 703.707 617.114C703.358 617.159 703.032 617.233 702.729 617.335C702.43 617.434 702.188 617.583 702.002 617.784C701.82 617.981 701.729 618.25 701.729 618.591C701.729 619.057 701.902 619.409 702.246 619.648C702.595 619.883 703.036 620 703.57 620ZM709.813 621V612.273H711.109V613.591H711.2C711.359 613.159 711.647 612.809 712.063 612.54C712.48 612.271 712.95 612.136 713.472 612.136C713.571 612.136 713.694 612.138 713.842 612.142C713.989 612.146 714.101 612.152 714.177 612.159V613.523C714.131 613.511 714.027 613.494 713.864 613.472C713.705 613.445 713.537 613.432 713.359 613.432C712.934 613.432 712.556 613.521 712.222 613.699C711.893 613.873 711.631 614.116 711.438 614.426C711.249 614.733 711.154 615.083 711.154 615.477V621H709.813ZM719.046 621.182C718.228 621.182 717.523 620.989 716.933 620.602C716.342 620.216 715.887 619.684 715.569 619.006C715.251 618.328 715.092 617.553 715.092 616.682C715.092 615.795 715.254 615.013 715.58 614.335C715.91 613.653 716.368 613.121 716.955 612.739C717.546 612.352 718.236 612.159 719.023 612.159C719.637 612.159 720.19 612.273 720.683 612.5C721.175 612.727 721.578 613.045 721.893 613.455C722.207 613.864 722.402 614.341 722.478 614.886H721.137C721.035 614.489 720.808 614.136 720.455 613.83C720.107 613.519 719.637 613.364 719.046 613.364C718.523 613.364 718.065 613.5 717.671 613.773C717.281 614.042 716.976 614.422 716.756 614.915C716.54 615.403 716.433 615.977 716.433 616.636C716.433 617.311 716.539 617.898 716.751 618.398C716.967 618.898 717.27 619.286 717.66 619.562C718.054 619.839 718.516 619.977 719.046 619.977C719.395 619.977 719.711 619.917 719.995 619.795C720.279 619.674 720.52 619.5 720.717 619.273C720.914 619.045 721.054 618.773 721.137 618.455H722.478C722.402 618.97 722.215 619.434 721.915 619.847C721.62 620.256 721.228 620.581 720.739 620.824C720.254 621.062 719.69 621.182 719.046 621.182ZM725.779 615.75V621H724.438V609.364H725.779V613.636H725.893C726.097 613.186 726.404 612.828 726.813 612.562C727.226 612.294 727.775 612.159 728.461 612.159C729.056 612.159 729.576 612.278 730.023 612.517C730.47 612.752 730.817 613.114 731.063 613.602C731.313 614.087 731.438 614.705 731.438 615.455V621H730.097V615.545C730.097 614.852 729.917 614.316 729.558 613.938C729.201 613.555 728.707 613.364 728.075 613.364C727.635 613.364 727.241 613.456 726.893 613.642C726.548 613.828 726.275 614.098 726.075 614.455C725.878 614.811 725.779 615.242 725.779 615.75Z" fill="black"/>
<path d="M934.036 609.364H935.445V617.682C935.445 618.424 935.308 619.055 935.036 619.574C934.763 620.093 934.378 620.487 933.882 620.756C933.386 621.025 932.801 621.159 932.126 621.159C931.49 621.159 930.924 621.044 930.428 620.812C929.931 620.578 929.541 620.244 929.257 619.812C928.973 619.381 928.831 618.867 928.831 618.273H930.217C930.217 618.602 930.299 618.89 930.462 619.136C930.628 619.379 930.856 619.568 931.143 619.705C931.431 619.841 931.759 619.909 932.126 619.909C932.532 619.909 932.876 619.824 933.161 619.653C933.445 619.483 933.661 619.233 933.808 618.903C933.96 618.57 934.036 618.163 934.036 617.682V609.364ZM943.587 617.432V612.273H944.928V621H943.587V619.523H943.496C943.291 619.966 942.973 620.343 942.541 620.653C942.109 620.96 941.564 621.114 940.905 621.114C940.359 621.114 939.875 620.994 939.45 620.756C939.026 620.513 938.693 620.15 938.45 619.665C938.208 619.176 938.087 618.561 938.087 617.818V612.273H939.428V617.727C939.428 618.364 939.606 618.871 939.962 619.25C940.321 619.629 940.78 619.818 941.337 619.818C941.67 619.818 942.009 619.733 942.354 619.562C942.702 619.392 942.994 619.131 943.229 618.778C943.467 618.426 943.587 617.977 943.587 617.432ZM948.724 615.75V621H947.384V612.273H948.679V613.636H948.793C948.997 613.193 949.308 612.837 949.724 612.568C950.141 612.295 950.679 612.159 951.338 612.159C951.929 612.159 952.446 612.28 952.889 612.523C953.332 612.761 953.677 613.125 953.923 613.614C954.17 614.098 954.293 614.712 954.293 615.455V621H952.952V615.545C952.952 614.86 952.774 614.326 952.418 613.943C952.062 613.557 951.573 613.364 950.952 613.364C950.524 613.364 950.141 613.456 949.804 613.642C949.471 613.828 949.207 614.098 949.014 614.455C948.821 614.811 948.724 615.242 948.724 615.75ZM960.402 621.182C959.561 621.182 958.836 620.996 958.226 620.625C957.62 620.25 957.152 619.727 956.822 619.057C956.497 618.383 956.334 617.598 956.334 616.705C956.334 615.811 956.497 615.023 956.822 614.341C957.152 613.655 957.61 613.121 958.197 612.739C958.788 612.352 959.478 612.159 960.266 612.159C960.72 612.159 961.169 612.235 961.612 612.386C962.055 612.538 962.459 612.784 962.822 613.125C963.186 613.462 963.476 613.909 963.692 614.466C963.908 615.023 964.016 615.708 964.016 616.523V617.091H957.288V615.932H962.652C962.652 615.439 962.554 615 962.357 614.614C962.163 614.227 961.887 613.922 961.527 613.699C961.171 613.475 960.75 613.364 960.266 613.364C959.732 613.364 959.269 613.496 958.879 613.761C958.493 614.023 958.196 614.364 957.987 614.784C957.779 615.205 957.675 615.655 957.675 616.136V616.909C957.675 617.568 957.788 618.127 958.016 618.585C958.247 619.04 958.567 619.386 958.976 619.625C959.385 619.86 959.86 619.977 960.402 619.977C960.754 619.977 961.072 619.928 961.357 619.83C961.644 619.727 961.893 619.576 962.101 619.375C962.309 619.17 962.47 618.917 962.584 618.614L963.879 618.977C963.743 619.417 963.514 619.803 963.192 620.136C962.87 620.466 962.472 620.723 961.999 620.909C961.525 621.091 960.993 621.182 960.402 621.182Z" fill="black"/>
<path d="M124 590C124 590 283.526 554.908 362.751 475.152C441.975 395.397 489.941 341.695 584.255 308.197C678.57 274.7 763.25 287.554 860.732 199.198C958.215 110.842 989 3 989 3" stroke="url(#paint1_linear_15_10)" stroke-width="5" stroke-linecap="round"/>
<circle cx="128" cy="590" r="8.5" fill="white" stroke="#6A5BF1" stroke-width="3"/>
<path d="M532.5 336C532.5 340.694 528.694 344.5 524 344.5C519.306 344.5 515.5 340.694 515.5 336C515.5 331.306 519.306 327.5 524 327.5C528.694 327.5 532.5 331.306 532.5 336Z" fill="white" stroke="#267589" stroke-width="3"/>
<path d="M913.5 153C913.5 157.694 909.694 161.5 905 161.5C900.306 161.5 896.5 157.694 896.5 153C896.5 148.306 900.306 144.5 905 144.5C909.694 144.5 913.5 148.306 913.5 153Z" fill="white" stroke="#00AA55" stroke-width="3"/>
<line x1="190.75" y1="586" x2="190.75" y2="594" stroke="#727272" stroke-width="1.5"/>
<line x1="456.75" y1="586" x2="456.75" y2="594" stroke="#333333" stroke-width="1.5"/>
<line x1="709.75" y1="586" x2="709.75" y2="594" stroke="black" stroke-width="1.5"/>
<line x1="947.75" y1="586" x2="947.75" y2="594" stroke="black" stroke-width="1.5"/>
<line x1="905.75" y1="168" x2="905.75" y2="183" stroke="black" stroke-width="1.5"/>
<path d="M885.336 211L892.571 196.682V196.562H884.142V193.545H896.39V196.605L889.145 211H885.336ZM905.078 211.239C903.766 211.239 902.598 211.026 901.576 210.599C900.559 210.168 899.76 209.58 899.181 208.835C898.601 208.091 898.311 207.247 898.311 206.304C898.311 205.577 898.476 204.909 898.806 204.301C899.141 203.688 899.596 203.179 900.169 202.776C900.743 202.366 901.385 202.105 902.096 201.991V201.872C901.164 201.685 900.408 201.233 899.828 200.517C899.249 199.795 898.959 198.957 898.959 198.003C898.959 197.099 899.223 196.295 899.752 195.591C900.28 194.881 901.005 194.324 901.925 193.92C902.851 193.511 903.902 193.307 905.078 193.307C906.255 193.307 907.303 193.511 908.223 193.92C909.15 194.33 909.877 194.889 910.405 195.599C910.934 196.304 911.201 197.105 911.206 198.003C911.201 198.963 910.905 199.801 910.32 200.517C909.735 201.233 908.985 201.685 908.07 201.872V201.991C908.769 202.105 909.402 202.366 909.971 202.776C910.544 203.179 910.999 203.688 911.334 204.301C911.675 204.909 911.848 205.577 911.854 206.304C911.848 207.247 911.556 208.091 910.976 208.835C910.397 209.58 909.596 210.168 908.573 210.599C907.556 211.026 906.391 211.239 905.078 211.239ZM905.078 208.528C905.664 208.528 906.175 208.423 906.613 208.213C907.05 207.997 907.391 207.702 907.635 207.327C907.885 206.946 908.01 206.509 908.01 206.014C908.01 205.509 907.882 205.062 907.627 204.676C907.371 204.284 907.025 203.977 906.587 203.756C906.15 203.528 905.647 203.415 905.078 203.415C904.516 203.415 904.013 203.528 903.57 203.756C903.127 203.977 902.777 204.284 902.522 204.676C902.272 205.062 902.147 205.509 902.147 206.014C902.147 206.509 902.269 206.946 902.513 207.327C902.757 207.702 903.101 207.997 903.544 208.213C903.988 208.423 904.499 208.528 905.078 208.528ZM905.078 200.73C905.567 200.73 906.002 200.631 906.382 200.432C906.763 200.233 907.061 199.957 907.277 199.605C907.493 199.253 907.601 198.847 907.601 198.386C907.601 197.932 907.493 197.534 907.277 197.193C907.061 196.847 906.766 196.577 906.391 196.384C906.016 196.185 905.578 196.085 905.078 196.085C904.584 196.085 904.147 196.185 903.766 196.384C903.385 196.577 903.087 196.847 902.871 197.193C902.661 197.534 902.556 197.932 902.556 198.386C902.556 198.847 902.664 199.253 902.88 199.605C903.096 199.957 903.394 200.233 903.775 200.432C904.155 200.631 904.59 200.73 905.078 200.73ZM920.332 208.818V208.205C920.332 207.739 920.431 207.311 920.627 206.92C920.828 206.527 921.118 206.212 921.497 205.977C921.879 205.739 922.345 205.619 922.895 205.619C923.451 205.619 923.919 205.737 924.298 205.972C924.681 206.206 924.968 206.521 925.162 206.915C925.359 207.305 925.457 207.735 925.457 208.205V208.818C925.457 209.284 925.359 209.714 925.162 210.108C924.965 210.498 924.675 210.811 924.292 211.045C923.91 211.284 923.444 211.403 922.895 211.403C922.338 211.403 921.87 211.284 921.491 211.045C921.112 210.811 920.824 210.498 920.627 210.108C920.431 209.714 920.332 209.284 920.332 208.818ZM921.985 208.205V208.818C921.985 209.087 922.05 209.341 922.179 209.58C922.311 209.818 922.55 209.938 922.895 209.938C923.239 209.938 923.474 209.82 923.599 209.585C923.728 209.35 923.792 209.095 923.792 208.818V208.205C923.792 207.928 923.732 207.67 923.61 207.432C923.489 207.193 923.251 207.074 922.895 207.074C922.554 207.074 922.317 207.193 922.184 207.432C922.052 207.67 921.985 207.928 921.985 208.205ZM914.36 202.159V201.545C914.36 201.076 914.461 200.646 914.662 200.256C914.862 199.862 915.152 199.547 915.531 199.312C915.913 199.078 916.376 198.96 916.917 198.96C917.478 198.96 917.948 199.078 918.326 199.312C918.705 199.547 918.993 199.862 919.19 200.256C919.387 200.646 919.485 201.076 919.485 201.545V202.159C919.485 202.629 919.385 203.059 919.184 203.449C918.987 203.839 918.698 204.152 918.315 204.386C917.936 204.617 917.47 204.733 916.917 204.733C916.364 204.733 915.896 204.616 915.514 204.381C915.135 204.142 914.847 203.83 914.65 203.443C914.457 203.053 914.36 202.625 914.36 202.159ZM916.025 201.545V202.159C916.025 202.436 916.09 202.691 916.218 202.926C916.351 203.161 916.584 203.278 916.917 203.278C917.266 203.278 917.502 203.161 917.627 202.926C917.756 202.691 917.821 202.436 917.821 202.159V201.545C917.821 201.269 917.76 201.011 917.639 200.773C917.518 200.534 917.277 200.415 916.917 200.415C916.58 200.415 916.347 200.536 916.218 200.778C916.09 201.021 916.025 201.277 916.025 201.545ZM915.11 211L923.11 199.364H924.599L916.599 211H915.11Z" fill="black"/>
<line x1="128.75" y1="560" x2="128.75" y2="575" stroke="black" stroke-width="1.5"/>
<path d="M117.028 536.545V554H113.338V540.048H113.235L109.238 542.554V539.281L113.559 536.545H117.028ZM127.551 554.239C126.347 554.239 125.273 554.017 124.33 553.574C123.392 553.131 122.648 552.52 122.097 551.741C121.546 550.963 121.259 550.071 121.236 549.065H124.816C124.855 549.741 125.14 550.29 125.668 550.71C126.196 551.131 126.824 551.341 127.551 551.341C128.131 551.341 128.642 551.213 129.086 550.957C129.534 550.696 129.884 550.335 130.134 549.875C130.39 549.409 130.517 548.875 130.517 548.273C130.517 547.659 130.387 547.119 130.125 546.653C129.87 546.187 129.515 545.824 129.06 545.562C128.605 545.301 128.086 545.168 127.5 545.162C126.989 545.162 126.492 545.267 126.009 545.477C125.532 545.687 125.159 545.974 124.892 546.338L121.611 545.75L122.438 536.545H133.108V539.562H125.48L125.029 543.935H125.131C125.438 543.503 125.901 543.145 126.52 542.861C127.14 542.577 127.833 542.435 128.6 542.435C129.651 542.435 130.588 542.682 131.412 543.176C132.236 543.67 132.887 544.349 133.364 545.213C133.841 546.071 134.077 547.06 134.071 548.179C134.077 549.355 133.804 550.401 133.253 551.315C132.708 552.224 131.944 552.94 130.961 553.463C129.983 553.98 128.847 554.239 127.551 554.239ZM142.543 551.818V551.205C142.543 550.739 142.641 550.311 142.838 549.92C143.039 549.527 143.329 549.212 143.708 548.977C144.09 548.739 144.556 548.619 145.105 548.619C145.662 548.619 146.13 548.737 146.509 548.972C146.891 549.206 147.179 549.521 147.373 549.915C147.569 550.305 147.668 550.735 147.668 551.205V551.818C147.668 552.284 147.569 552.714 147.373 553.108C147.176 553.498 146.886 553.811 146.503 554.045C146.121 554.284 145.655 554.403 145.105 554.403C144.549 554.403 144.081 554.284 143.702 554.045C143.323 553.811 143.035 553.498 142.838 553.108C142.641 552.714 142.543 552.284 142.543 551.818ZM144.196 551.205V551.818C144.196 552.087 144.261 552.341 144.39 552.58C144.522 552.818 144.761 552.938 145.105 552.938C145.45 552.938 145.685 552.82 145.81 552.585C145.939 552.35 146.003 552.095 146.003 551.818V551.205C146.003 550.928 145.943 550.67 145.821 550.432C145.7 550.193 145.462 550.074 145.105 550.074C144.765 550.074 144.528 550.193 144.395 550.432C144.263 550.67 144.196 550.928 144.196 551.205ZM136.571 545.159V544.545C136.571 544.076 136.672 543.646 136.873 543.256C137.073 542.862 137.363 542.547 137.742 542.312C138.124 542.078 138.587 541.96 139.128 541.96C139.689 541.96 140.158 542.078 140.537 542.312C140.916 542.547 141.204 542.862 141.401 543.256C141.598 543.646 141.696 544.076 141.696 544.545V545.159C141.696 545.629 141.596 546.059 141.395 546.449C141.198 546.839 140.908 547.152 140.526 547.386C140.147 547.617 139.681 547.733 139.128 547.733C138.575 547.733 138.107 547.616 137.725 547.381C137.346 547.142 137.058 546.83 136.861 546.443C136.668 546.053 136.571 545.625 136.571 545.159ZM138.236 544.545V545.159C138.236 545.436 138.301 545.691 138.429 545.926C138.562 546.161 138.795 546.278 139.128 546.278C139.477 546.278 139.713 546.161 139.838 545.926C139.967 545.691 140.032 545.436 140.032 545.159V544.545C140.032 544.269 139.971 544.011 139.85 543.773C139.729 543.534 139.488 543.415 139.128 543.415C138.791 543.415 138.558 543.536 138.429 543.778C138.301 544.021 138.236 544.277 138.236 544.545ZM137.321 554L145.321 542.364H146.81L138.81 554H137.321Z" fill="black"/>
<defs>
<linearGradient id="paint0_linear_15_10" x1="-0.00201416" y1="590" x2="1112" y2="590" gradientUnits="userSpaceOnUse">
<stop stop-color="#C0C0C0"/>
<stop offset="0.64"/>
</linearGradient>
<linearGradient id="paint1_linear_15_10" x1="501.456" y1="173.944" x2="501.456" y2="595.481" gradientUnits="userSpaceOnUse">
<stop stop-color="#00AA55"/>
<stop offset="1" stop-color="#6A5BF1"/>
</linearGradient>
</defs>
</svg>
