<svg width="1200" height="703" viewBox="0 0 1200 703" fill="none" xmlns="http://www.w3.org/2000/svg">
<g clip-path="url(#clip0_19_50)">
<path d="M899.166 480.878C900.28 482.666 901.787 484.198 903.582 485.365C905.378 486.532 907.417 487.306 909.558 487.633C911.698 487.96 913.887 487.832 915.97 487.258C918.053 486.683 919.98 485.677 921.615 484.309L967.312 509.51L965.609 483.239L922.475 463.335C919.904 460.846 916.472 459.351 912.83 459.133C909.188 458.915 905.59 459.989 902.717 462.152C899.844 464.314 897.895 467.415 897.241 470.866C896.587 474.318 897.272 477.88 899.166 480.878Z" fill="#FFB8B8"/>
<path d="M1031.46 581.833C1017.91 600.076 1018.39 630.596 1022.17 664H1086.26L1089.05 657.748L1092.77 664H1153.14C1153.14 664 1148.5 579.154 1140.14 576.475C1131.78 573.795 1031.46 581.833 1031.46 581.833Z" fill="#2F2E41"/>
<path d="M1086.26 391.236C1104.22 391.236 1118.77 377.241 1118.77 359.977C1118.77 342.713 1104.22 328.718 1086.26 328.718C1068.31 328.718 1053.75 342.713 1053.75 359.977C1053.75 377.241 1068.31 391.236 1086.26 391.236Z" fill="#FFB8B8"/>
<path d="M1109.76 399.346L1116.12 411.062L1160.09 429.91L1148.53 537.464L1143.67 548.602L1146.29 558.274L1139.96 565.412C1146.32 570.946 1147.13 576.739 1143.67 582.732L1123.42 587.192C1123.42 587.192 1010.83 596.819 1020.32 580.047C1030.68 561.722 1033.32 507.602 1010.44 478.681C991.006 454.129 1005.92 422.269 1005.92 422.269L1052.01 409.024L1068.97 399.346L1109.76 399.346Z" fill="#3F3D56"/>
<path d="M1100.7 314.187C1100.85 313.876 1101.09 313.616 1101.4 313.441C1101.71 313.266 1102.06 313.182 1102.42 313.202C1087.54 312.346 1071.86 314.014 1059.41 321.901C1056.39 323.811 1053.55 326.09 1050.27 327.476C1050.11 327.543 1049.98 327.647 1049.88 327.779C1049.78 327.911 1049.71 328.065 1049.69 328.227C1049.67 328.389 1049.7 328.554 1049.76 328.704C1049.83 328.855 1049.93 328.987 1050.07 329.087L1050.43 329.359C1050.57 329.467 1050.68 329.609 1050.74 329.772C1050.81 329.935 1050.82 330.111 1050.79 330.282C1050.76 330.453 1050.67 330.611 1050.55 330.741C1050.43 330.871 1050.28 330.966 1050.1 331.017C1049.92 331.069 1049.76 331.171 1049.64 331.308C1049.52 331.446 1049.44 331.615 1049.41 331.794C1049.39 331.974 1049.42 332.157 1049.49 332.321C1049.57 332.486 1049.7 332.626 1049.86 332.724L1052.62 334.441C1052.76 334.526 1052.87 334.643 1052.95 334.782C1053.03 334.921 1053.08 335.077 1053.08 335.235C1053.08 335.394 1053.04 335.55 1052.96 335.689C1052.88 335.829 1052.77 335.947 1052.63 336.034C1052.39 336.173 1052.15 336.292 1051.89 336.392C1051.74 336.449 1051.59 336.545 1051.49 336.669C1051.38 336.794 1051.3 336.944 1051.27 337.104C1051.24 337.264 1051.25 337.429 1051.31 337.583C1051.36 337.738 1051.46 337.876 1051.58 337.985C1052.78 339.009 1053.7 340.299 1054.25 341.743C1055.18 344.045 1055.34 346.552 1055.5 349.015C1056.45 345.462 1060.48 343.371 1064.29 343.158C1068.1 342.946 1071.81 344.154 1075.52 345.023C1083.59 346.909 1091.98 347.22 1100.18 345.935C1097.4 351.309 1099.74 357.718 1102.11 363.275L1109.76 360.122C1120.27 354.418 1112.95 378.546 1109.02 381.858C1117.04 384.532 1138.04 354.852 1131.28 343.594C1127.77 337.738 1130.26 330.185 1123.36 324.63C1119.97 321.204 1113.21 322.727 1109.76 319.878C1108.4 318.758 1110.47 315.759 1108.61 315.105C1107.99 314.888 1100.8 313.968 1100.7 314.187Z" fill="#2F2E41"/>
<path d="M1045.63 412.05C1039.67 437.516 1024.37 496.973 1008.84 509.408C1007.86 510.302 1006.68 510.972 1005.39 511.369C950.827 524.15 933.345 491.548 933.345 491.548C933.345 491.548 947.966 484.697 948.337 471.304L977.825 480.102L1003.53 424.48L1007.31 421.087L1007.33 421.067L1045.63 412.05Z" fill="#3F3D56"/>
<path d="M1161.96 647.209C1163.53 645.765 1164.74 644.009 1165.52 642.065C1166.3 640.121 1166.63 638.036 1166.48 635.957C1166.33 633.878 1165.71 631.855 1164.66 630.032C1163.61 628.209 1162.16 626.629 1160.41 625.403L1175.7 576.932L1149.46 584.418L1138.96 629.3C1137.01 632.268 1136.27 635.819 1136.86 639.28C1137.46 642.742 1139.35 645.873 1142.19 648.08C1145.02 650.288 1148.6 651.418 1152.25 651.258C1155.89 651.097 1159.35 649.657 1161.96 647.209Z" fill="#FFB8B8"/>
<path d="M1147.97 427.198L1160.09 429.91C1160.09 429.91 1210.2 523.655 1198.12 541.517C1186.05 559.38 1171.25 618.517 1171.25 618.517C1171.25 618.517 1149.38 614.335 1141.02 603.618L1156.32 533.479L1140.53 474.534L1147.97 427.198Z" fill="#3F3D56"/>
<path d="M917.968 566.407L918.404 415.425C918.416 412.369 919.689 409.442 921.942 407.288C924.195 405.133 927.246 403.925 930.424 403.93L1049.01 404.247C1052.19 404.259 1055.23 405.482 1057.47 407.649C1059.71 409.816 1060.97 412.749 1060.96 415.805L1060.53 566.787C1060.51 569.843 1059.24 572.769 1056.99 574.924C1054.74 577.079 1051.68 578.286 1048.51 578.281L929.922 577.965C926.744 577.953 923.701 576.729 921.46 574.563C919.219 572.396 917.963 569.463 917.968 566.407Z" fill="#E6E6E6"/>
<path d="M927.196 520.828L927.476 423.763C927.487 420.901 928.679 418.161 930.79 416.142C932.9 414.124 935.757 412.994 938.733 412.998L1040.65 413.27C1043.62 413.281 1046.47 414.427 1048.57 416.456C1050.67 418.486 1051.85 421.233 1051.84 424.095L1051.46 558.448C1051.44 561.31 1050.25 564.051 1048.14 566.069C1046.03 568.087 1043.17 569.218 1040.2 569.213L977.064 569.045C963.806 568.995 951.11 563.891 941.761 554.851C932.412 545.812 927.174 533.576 927.196 520.828Z" fill="white"/>
<path d="M1028.97 455.635H949.503C948.238 455.635 947.025 455.152 946.131 454.292C945.237 453.433 944.735 452.266 944.735 451.05C944.735 449.835 945.237 448.668 946.131 447.809C947.025 446.949 948.238 446.466 949.503 446.466H1028.97C1030.23 446.466 1031.45 446.949 1032.34 447.809C1033.23 448.668 1033.74 449.835 1033.74 451.05C1033.74 452.266 1033.23 453.433 1032.34 454.292C1031.45 455.152 1030.23 455.635 1028.97 455.635Z" fill="#00AA55"/>
<path d="M966.985 434.495H949.503C948.238 434.495 947.025 434.012 946.131 433.152C945.237 432.292 944.735 431.126 944.735 429.91C944.735 428.694 945.237 427.528 946.131 426.668C947.025 425.809 948.238 425.325 949.503 425.325H966.985C968.25 425.325 969.463 425.809 970.357 426.668C971.251 427.528 971.753 428.694 971.753 429.91C971.753 431.126 971.251 432.292 970.357 433.152C969.463 434.012 968.25 434.495 966.985 434.495Z" fill="#00AA55"/>
<path d="M1028.97 476.775H949.503C948.238 476.775 947.025 476.292 946.131 475.433C945.237 474.573 944.735 473.407 944.735 472.191C944.735 470.975 945.237 469.809 946.131 468.949C947.025 468.089 948.238 467.606 949.503 467.606H1028.97C1030.23 467.606 1031.45 468.089 1032.34 468.949C1033.23 469.809 1033.74 470.975 1033.74 472.191C1033.74 473.407 1033.23 474.573 1032.34 475.433C1031.45 476.292 1030.23 476.775 1028.97 476.775Z" fill="#00AA55"/>
<path d="M1028.97 497.916H949.503C948.238 497.916 947.025 497.433 946.131 496.573C945.237 495.713 944.735 494.547 944.735 493.331C944.735 492.115 945.237 490.949 946.131 490.089C947.025 489.23 948.238 488.746 949.503 488.746H1028.97C1030.23 488.746 1031.45 489.23 1032.34 490.089C1033.23 490.949 1033.74 492.115 1033.74 493.331C1033.74 494.547 1033.23 495.713 1032.34 496.573C1031.45 497.433 1030.23 497.916 1028.97 497.916Z" fill="#00AA55"/>
<path d="M1022.54 553.62C1033.02 553.62 1041.51 545.452 1041.51 535.377C1041.51 525.302 1033.02 517.135 1022.54 517.135C1012.06 517.135 1003.57 525.302 1003.57 535.377C1003.57 545.452 1012.06 553.62 1022.54 553.62Z" fill="#00AA55"/>
<path d="M1019.95 544.872C1019.62 544.872 1019.3 544.798 1019.01 544.657C1018.71 544.516 1018.46 544.312 1018.26 544.06L1013.09 537.424C1012.92 537.211 1012.8 536.968 1012.73 536.71C1012.66 536.452 1012.65 536.183 1012.68 535.919C1012.72 535.655 1012.82 535.401 1012.96 535.171C1013.1 534.942 1013.29 534.741 1013.51 534.581C1013.73 534.421 1013.98 534.305 1014.25 534.239C1014.52 534.173 1014.8 534.158 1015.07 534.196C1015.35 534.234 1015.61 534.323 1015.85 534.459C1016.09 534.596 1016.3 534.776 1016.46 534.989L1019.85 539.33L1028.55 526.786C1028.7 526.564 1028.9 526.372 1029.13 526.223C1029.36 526.074 1029.62 525.97 1029.89 525.917C1030.16 525.865 1030.44 525.864 1030.71 525.916C1030.99 525.967 1031.25 526.07 1031.48 526.218C1031.71 526.366 1031.91 526.557 1032.06 526.779C1032.22 527.001 1032.32 527.25 1032.38 527.512C1032.43 527.774 1032.43 528.043 1032.38 528.305C1032.32 528.567 1032.21 528.816 1032.06 529.038L1021.71 543.968C1021.52 544.238 1021.27 544.461 1020.97 544.618C1020.68 544.775 1020.35 544.862 1020.01 544.871C1019.99 544.871 1019.97 544.872 1019.95 544.872Z" fill="white"/>
<path d="M982.084 368.781C987.058 368.781 991.09 364.904 991.09 360.122C991.09 355.339 987.058 351.462 982.084 351.462C977.11 351.462 973.078 355.339 973.078 360.122C973.078 364.904 977.11 368.781 982.084 368.781Z" fill="#F2F2F2"/>
<path d="M949.238 617.881C954.212 617.881 958.244 614.004 958.244 609.221C958.244 604.438 954.212 600.561 949.238 600.561C944.264 600.561 940.232 604.438 940.232 609.221C940.232 614.004 944.264 617.881 949.238 617.881Z" fill="#F2F2F2"/>
<path d="M1156.38 402.402C1161.35 402.402 1165.39 398.525 1165.39 393.742C1165.39 388.96 1161.35 385.082 1156.38 385.082C1151.41 385.082 1147.37 388.96 1147.37 393.742C1147.37 398.525 1151.41 402.402 1156.38 402.402Z" fill="#F2F2F2"/>
</g>
<path d="M1200 664.081L1190 658.307V669.854L1200 664.081ZM0 665.081H1191V663.081H0V665.081Z" fill="url(#paint0_linear_19_50)"/>
<path d="M171.107 688.443C171.039 687.867 170.762 687.42 170.277 687.102C169.793 686.784 169.198 686.625 168.493 686.625C167.978 686.625 167.527 686.708 167.141 686.875C166.758 687.041 166.459 687.27 166.243 687.562C166.031 687.854 165.925 688.185 165.925 688.556C165.925 688.867 165.999 689.134 166.147 689.357C166.298 689.577 166.491 689.761 166.726 689.909C166.961 690.053 167.207 690.172 167.465 690.267C167.722 690.357 167.959 690.431 168.175 690.488L169.357 690.806C169.66 690.886 169.997 690.996 170.368 691.136C170.743 691.276 171.101 691.467 171.442 691.71C171.787 691.948 172.071 692.255 172.294 692.63C172.518 693.005 172.63 693.465 172.63 694.011C172.63 694.64 172.465 695.208 172.135 695.715C171.81 696.223 171.332 696.626 170.704 696.926C170.079 697.225 169.319 697.375 168.425 697.375C167.592 697.375 166.87 697.24 166.26 696.971C165.654 696.702 165.177 696.327 164.829 695.846C164.484 695.365 164.289 694.806 164.243 694.17H165.698C165.736 694.609 165.883 694.973 166.141 695.261C166.402 695.545 166.732 695.757 167.13 695.897C167.531 696.034 167.963 696.102 168.425 696.102C168.963 696.102 169.446 696.015 169.874 695.84C170.302 695.662 170.641 695.416 170.891 695.102C171.141 694.784 171.266 694.412 171.266 693.988C171.266 693.602 171.158 693.287 170.942 693.045C170.726 692.803 170.442 692.606 170.09 692.454C169.738 692.303 169.357 692.17 168.948 692.056L167.516 691.647C166.607 691.386 165.887 691.013 165.357 690.528C164.827 690.043 164.561 689.409 164.561 688.625C164.561 687.973 164.738 687.405 165.09 686.92C165.446 686.431 165.923 686.053 166.522 685.784C167.124 685.511 167.796 685.375 168.539 685.375C169.289 685.375 169.955 685.509 170.539 685.778C171.122 686.043 171.584 686.407 171.925 686.869C172.27 687.331 172.452 687.856 172.471 688.443H171.107ZM178.424 697.352C177.583 697.352 176.857 697.166 176.248 696.795C175.641 696.42 175.174 695.897 174.844 695.227C174.518 694.553 174.356 693.768 174.356 692.875C174.356 691.981 174.518 691.193 174.844 690.511C175.174 689.825 175.632 689.291 176.219 688.909C176.81 688.522 177.499 688.329 178.287 688.329C178.742 688.329 179.191 688.405 179.634 688.556C180.077 688.708 180.481 688.954 180.844 689.295C181.208 689.632 181.498 690.079 181.713 690.636C181.929 691.193 182.037 691.878 182.037 692.693V693.261H175.31V692.102H180.674C180.674 691.609 180.575 691.17 180.378 690.784C180.185 690.397 179.909 690.092 179.549 689.869C179.193 689.645 178.772 689.534 178.287 689.534C177.753 689.534 177.291 689.666 176.901 689.931C176.515 690.193 176.217 690.534 176.009 690.954C175.801 691.375 175.696 691.825 175.696 692.306V693.079C175.696 693.738 175.81 694.297 176.037 694.755C176.268 695.21 176.588 695.556 176.998 695.795C177.407 696.03 177.882 696.147 178.424 696.147C178.776 696.147 179.094 696.098 179.378 696C179.666 695.897 179.914 695.746 180.123 695.545C180.331 695.34 180.492 695.087 180.606 694.784L181.901 695.147C181.765 695.587 181.535 695.973 181.213 696.306C180.891 696.636 180.494 696.893 180.02 697.079C179.547 697.261 179.015 697.352 178.424 697.352ZM184.077 700.443V688.443H185.373V689.829H185.532C185.63 689.678 185.766 689.484 185.941 689.25C186.119 689.011 186.373 688.799 186.702 688.613C187.035 688.424 187.486 688.329 188.054 688.329C188.789 688.329 189.437 688.513 189.998 688.88C190.558 689.248 190.996 689.768 191.31 690.443C191.624 691.117 191.782 691.912 191.782 692.829C191.782 693.753 191.624 694.554 191.31 695.232C190.996 695.907 190.56 696.429 190.003 696.801C189.446 697.168 188.804 697.352 188.077 697.352C187.516 697.352 187.068 697.259 186.731 697.073C186.393 696.884 186.134 696.67 185.952 696.431C185.77 696.189 185.63 695.988 185.532 695.829H185.418V700.443H184.077ZM185.395 692.806C185.395 693.465 185.492 694.047 185.685 694.551C185.878 695.051 186.16 695.443 186.532 695.727C186.903 696.007 187.357 696.147 187.895 696.147C188.456 696.147 188.924 696 189.299 695.704C189.677 695.405 189.962 695.003 190.151 694.5C190.344 693.992 190.441 693.428 190.441 692.806C190.441 692.193 190.346 691.64 190.157 691.147C189.971 690.651 189.689 690.259 189.31 689.971C188.935 689.679 188.463 689.534 187.895 689.534C187.35 689.534 186.891 689.672 186.52 689.948C186.149 690.221 185.869 690.604 185.679 691.096C185.49 691.585 185.395 692.155 185.395 692.806ZM197.623 688.443V689.579H193.1V688.443H197.623ZM194.418 686.352H195.759V694.67C195.759 695.049 195.814 695.333 195.924 695.522C196.037 695.708 196.181 695.833 196.356 695.897C196.534 695.958 196.721 695.988 196.918 695.988C197.066 695.988 197.187 695.981 197.282 695.965C197.376 695.946 197.452 695.931 197.509 695.92L197.782 697.125C197.691 697.159 197.564 697.193 197.401 697.227C197.238 697.265 197.032 697.284 196.782 697.284C196.403 697.284 196.032 697.202 195.668 697.039C195.308 696.876 195.009 696.628 194.77 696.295C194.535 695.962 194.418 695.541 194.418 695.034V686.352ZM203.205 697.352C202.364 697.352 201.639 697.166 201.029 696.795C200.423 696.42 199.955 695.897 199.625 695.227C199.3 694.553 199.137 693.768 199.137 692.875C199.137 691.981 199.3 691.193 199.625 690.511C199.955 689.825 200.413 689.291 201 688.909C201.591 688.522 202.281 688.329 203.069 688.329C203.523 688.329 203.972 688.405 204.415 688.556C204.858 688.708 205.262 688.954 205.625 689.295C205.989 689.632 206.279 690.079 206.495 690.636C206.711 691.193 206.819 691.878 206.819 692.693V693.261H200.091V692.102H205.455C205.455 691.609 205.356 691.17 205.159 690.784C204.966 690.397 204.69 690.092 204.33 689.869C203.974 689.645 203.553 689.534 203.069 689.534C202.534 689.534 202.072 689.666 201.682 689.931C201.296 690.193 200.998 690.534 200.79 690.954C200.582 691.375 200.478 691.825 200.478 692.306V693.079C200.478 693.738 200.591 694.297 200.819 694.755C201.05 695.21 201.37 695.556 201.779 695.795C202.188 696.03 202.663 696.147 203.205 696.147C203.557 696.147 203.875 696.098 204.159 696C204.447 695.897 204.695 695.746 204.904 695.545C205.112 695.34 205.273 695.087 205.387 694.784L206.682 695.147C206.546 695.587 206.317 695.973 205.995 696.306C205.673 696.636 205.275 696.893 204.802 697.079C204.328 697.261 203.796 697.352 203.205 697.352ZM208.858 697.17V688.443H210.154V689.806H210.267C210.449 689.34 210.743 688.979 211.148 688.721C211.553 688.46 212.04 688.329 212.608 688.329C213.184 688.329 213.663 688.46 214.046 688.721C214.432 688.979 214.733 689.34 214.949 689.806H215.04C215.264 689.356 215.599 688.998 216.046 688.732C216.493 688.464 217.029 688.329 217.654 688.329C218.434 688.329 219.072 688.573 219.569 689.062C220.065 689.547 220.313 690.303 220.313 691.329V697.17H218.972V691.329C218.972 690.685 218.796 690.225 218.444 689.948C218.091 689.672 217.677 689.534 217.199 689.534C216.586 689.534 216.11 689.719 215.773 690.09C215.436 690.458 215.267 690.924 215.267 691.488V697.17H213.904V691.193C213.904 690.696 213.743 690.297 213.421 689.994C213.099 689.687 212.684 689.534 212.177 689.534C211.828 689.534 211.502 689.626 211.199 689.812C210.9 689.998 210.658 690.255 210.472 690.585C210.29 690.911 210.199 691.287 210.199 691.715V697.17H208.858ZM222.946 697.17V685.534H224.287V689.829H224.401C224.499 689.678 224.636 689.484 224.81 689.25C224.988 689.011 225.242 688.799 225.571 688.613C225.905 688.424 226.356 688.329 226.924 688.329C227.659 688.329 228.306 688.513 228.867 688.88C229.427 689.248 229.865 689.768 230.179 690.443C230.494 691.117 230.651 691.912 230.651 692.829C230.651 693.753 230.494 694.554 230.179 695.232C229.865 695.907 229.429 696.429 228.873 696.801C228.316 697.168 227.674 697.352 226.946 697.352C226.386 697.352 225.937 697.259 225.6 697.073C225.263 696.884 225.003 696.67 224.821 696.431C224.64 696.189 224.499 695.988 224.401 695.829H224.242V697.17H222.946ZM224.265 692.806C224.265 693.465 224.361 694.047 224.554 694.551C224.748 695.051 225.03 695.443 225.401 695.727C225.772 696.007 226.227 696.147 226.765 696.147C227.325 696.147 227.793 696 228.168 695.704C228.547 695.405 228.831 695.003 229.02 694.5C229.213 693.992 229.31 693.428 229.31 692.806C229.31 692.193 229.215 691.64 229.026 691.147C228.84 690.651 228.558 690.259 228.179 689.971C227.804 689.679 227.333 689.534 226.765 689.534C226.219 689.534 225.761 689.672 225.39 689.948C225.018 690.221 224.738 690.604 224.549 691.096C224.359 691.585 224.265 692.155 224.265 692.806ZM236.361 697.352C235.52 697.352 234.795 697.166 234.185 696.795C233.579 696.42 233.111 695.897 232.782 695.227C232.456 694.553 232.293 693.768 232.293 692.875C232.293 691.981 232.456 691.193 232.782 690.511C233.111 689.825 233.57 689.291 234.157 688.909C234.748 688.522 235.437 688.329 236.225 688.329C236.679 688.329 237.128 688.405 237.571 688.556C238.015 688.708 238.418 688.954 238.782 689.295C239.145 689.632 239.435 690.079 239.651 690.636C239.867 691.193 239.975 691.878 239.975 692.693V693.261H233.248V692.102H238.611C238.611 691.609 238.513 691.17 238.316 690.784C238.123 690.397 237.846 690.092 237.486 689.869C237.13 689.645 236.71 689.534 236.225 689.534C235.691 689.534 235.229 689.666 234.838 689.931C234.452 690.193 234.155 690.534 233.946 690.954C233.738 691.375 233.634 691.825 233.634 692.306V693.079C233.634 693.738 233.748 694.297 233.975 694.755C234.206 695.21 234.526 695.556 234.935 695.795C235.344 696.03 235.82 696.147 236.361 696.147C236.713 696.147 237.032 696.098 237.316 696C237.604 695.897 237.852 695.746 238.06 695.545C238.268 695.34 238.429 695.087 238.543 694.784L239.838 695.147C239.702 695.587 239.473 695.973 239.151 696.306C238.829 696.636 238.431 696.893 237.958 697.079C237.484 697.261 236.952 697.352 236.361 697.352ZM242.015 697.17V688.443H243.31V689.761H243.401C243.56 689.329 243.848 688.979 244.265 688.71C244.681 688.441 245.151 688.306 245.674 688.306C245.772 688.306 245.895 688.308 246.043 688.312C246.191 688.316 246.302 688.321 246.378 688.329V689.693C246.333 689.681 246.229 689.664 246.066 689.642C245.907 689.615 245.738 689.602 245.56 689.602C245.136 689.602 244.757 689.691 244.424 689.869C244.094 690.043 243.833 690.286 243.64 690.596C243.45 690.903 243.356 691.253 243.356 691.647V697.17H242.015Z" fill="black"/>
<path d="M458.54 697.17H454.949V685.534H458.699C459.828 685.534 460.794 685.767 461.597 686.232C462.4 686.695 463.016 687.359 463.444 688.227C463.872 689.09 464.086 690.125 464.086 691.329C464.086 692.541 463.87 693.585 463.438 694.46C463.006 695.331 462.378 696.001 461.552 696.471C460.726 696.937 459.722 697.17 458.54 697.17ZM456.359 695.92H458.449C459.412 695.92 460.209 695.734 460.842 695.363C461.474 694.992 461.946 694.464 462.256 693.778C462.567 693.092 462.722 692.276 462.722 691.329C462.722 690.39 462.569 689.581 462.262 688.903C461.955 688.221 461.497 687.698 460.887 687.335C460.277 686.967 459.518 686.784 458.609 686.784H456.359V695.92ZM469.927 697.352C469.086 697.352 468.36 697.166 467.751 696.795C467.145 696.42 466.677 695.897 466.347 695.227C466.021 694.553 465.859 693.768 465.859 692.875C465.859 691.981 466.021 691.193 466.347 690.511C466.677 689.825 467.135 689.291 467.722 688.909C468.313 688.522 469.003 688.329 469.79 688.329C470.245 688.329 470.694 688.405 471.137 688.556C471.58 688.708 471.984 688.954 472.347 689.295C472.711 689.632 473.001 690.079 473.217 690.636C473.432 691.193 473.54 691.878 473.54 692.693V693.261H466.813V692.102H472.177C472.177 691.609 472.078 691.17 471.881 690.784C471.688 690.397 471.412 690.092 471.052 689.869C470.696 689.645 470.275 689.534 469.79 689.534C469.256 689.534 468.794 689.666 468.404 689.931C468.018 690.193 467.72 690.534 467.512 690.954C467.304 691.375 467.199 691.825 467.199 692.306V693.079C467.199 693.738 467.313 694.297 467.54 694.755C467.771 695.21 468.092 695.556 468.501 695.795C468.91 696.03 469.385 696.147 469.927 696.147C470.279 696.147 470.597 696.098 470.881 696C471.169 695.897 471.417 695.746 471.626 695.545C471.834 695.34 471.995 695.087 472.109 694.784L473.404 695.147C473.268 695.587 473.038 695.973 472.717 696.306C472.395 696.636 471.997 696.893 471.523 697.079C471.05 697.261 470.518 697.352 469.927 697.352ZM479.126 697.352C478.307 697.352 477.603 697.159 477.012 696.772C476.421 696.386 475.967 695.854 475.648 695.176C475.33 694.498 475.171 693.723 475.171 692.852C475.171 691.965 475.334 691.183 475.66 690.505C475.989 689.823 476.448 689.291 477.035 688.909C477.626 688.522 478.315 688.329 479.103 688.329C479.717 688.329 480.27 688.443 480.762 688.67C481.254 688.897 481.658 689.215 481.972 689.625C482.287 690.034 482.482 690.511 482.557 691.056H481.217C481.114 690.659 480.887 690.306 480.535 690C480.186 689.689 479.717 689.534 479.126 689.534C478.603 689.534 478.145 689.67 477.751 689.943C477.36 690.212 477.056 690.592 476.836 691.085C476.62 691.573 476.512 692.147 476.512 692.806C476.512 693.481 476.618 694.068 476.83 694.568C477.046 695.068 477.349 695.456 477.739 695.732C478.133 696.009 478.595 696.147 479.126 696.147C479.474 696.147 479.79 696.087 480.074 695.965C480.359 695.844 480.599 695.67 480.796 695.443C480.993 695.215 481.133 694.943 481.217 694.625H482.557C482.482 695.14 482.294 695.604 481.995 696.017C481.699 696.426 481.307 696.751 480.819 696.994C480.334 697.232 479.77 697.352 479.126 697.352ZM488.177 697.352C487.336 697.352 486.61 697.166 486.001 696.795C485.395 696.42 484.927 695.897 484.597 695.227C484.271 694.553 484.109 693.768 484.109 692.875C484.109 691.981 484.271 691.193 484.597 690.511C484.927 689.825 485.385 689.291 485.972 688.909C486.563 688.522 487.253 688.329 488.04 688.329C488.495 688.329 488.944 688.405 489.387 688.556C489.83 688.708 490.234 688.954 490.597 689.295C490.961 689.632 491.251 690.079 491.467 690.636C491.682 691.193 491.79 691.878 491.79 692.693V693.261H485.063V692.102H490.427C490.427 691.609 490.328 691.17 490.131 690.784C489.938 690.397 489.662 690.092 489.302 689.869C488.946 689.645 488.525 689.534 488.04 689.534C487.506 689.534 487.044 689.666 486.654 689.931C486.268 690.193 485.97 690.534 485.762 690.954C485.554 691.375 485.449 691.825 485.449 692.306V693.079C485.449 693.738 485.563 694.297 485.79 694.755C486.021 695.21 486.342 695.556 486.751 695.795C487.16 696.03 487.635 696.147 488.177 696.147C488.529 696.147 488.847 696.098 489.131 696C489.419 695.897 489.667 695.746 489.876 695.545C490.084 695.34 490.245 695.087 490.359 694.784L491.654 695.147C491.518 695.587 491.288 695.973 490.967 696.306C490.645 696.636 490.247 696.893 489.773 697.079C489.3 697.261 488.768 697.352 488.177 697.352ZM493.83 697.17V688.443H495.126V689.806H495.239C495.421 689.34 495.715 688.979 496.12 688.721C496.525 688.46 497.012 688.329 497.58 688.329C498.156 688.329 498.635 688.46 499.018 688.721C499.404 688.979 499.705 689.34 499.921 689.806H500.012C500.235 689.356 500.571 688.998 501.018 688.732C501.465 688.464 502.001 688.329 502.626 688.329C503.406 688.329 504.044 688.573 504.54 689.062C505.037 689.547 505.285 690.303 505.285 691.329V697.17H503.944V691.329C503.944 690.685 503.768 690.225 503.415 689.948C503.063 689.672 502.648 689.534 502.171 689.534C501.557 689.534 501.082 689.719 500.745 690.09C500.408 690.458 500.239 690.924 500.239 691.488V697.17H498.876V691.193C498.876 690.696 498.715 690.297 498.393 689.994C498.071 689.687 497.656 689.534 497.148 689.534C496.8 689.534 496.474 689.626 496.171 689.812C495.872 689.998 495.629 690.255 495.444 690.585C495.262 690.911 495.171 691.287 495.171 691.715V697.17H493.83ZM507.918 697.17V685.534H509.259V689.829H509.373C509.471 689.678 509.608 689.484 509.782 689.25C509.96 689.011 510.214 688.799 510.543 688.613C510.877 688.424 511.327 688.329 511.896 688.329C512.63 688.329 513.278 688.513 513.839 688.88C514.399 689.248 514.837 689.768 515.151 690.443C515.466 691.117 515.623 691.912 515.623 692.829C515.623 693.753 515.466 694.554 515.151 695.232C514.837 695.907 514.401 696.429 513.844 696.801C513.288 697.168 512.646 697.352 511.918 697.352C511.358 697.352 510.909 697.259 510.572 697.073C510.235 696.884 509.975 696.67 509.793 696.431C509.611 696.189 509.471 695.988 509.373 695.829H509.214V697.17H507.918ZM509.236 692.806C509.236 693.465 509.333 694.047 509.526 694.551C509.719 695.051 510.002 695.443 510.373 695.727C510.744 696.007 511.199 696.147 511.736 696.147C512.297 696.147 512.765 696 513.14 695.704C513.519 695.405 513.803 695.003 513.992 694.5C514.185 693.992 514.282 693.428 514.282 692.806C514.282 692.193 514.187 691.64 513.998 691.147C513.812 690.651 513.53 690.259 513.151 689.971C512.776 689.679 512.305 689.534 511.736 689.534C511.191 689.534 510.733 689.672 510.361 689.948C509.99 690.221 509.71 690.604 509.521 691.096C509.331 691.585 509.236 692.155 509.236 692.806ZM521.333 697.352C520.492 697.352 519.767 697.166 519.157 696.795C518.551 696.42 518.083 695.897 517.753 695.227C517.428 694.553 517.265 693.768 517.265 692.875C517.265 691.981 517.428 691.193 517.753 690.511C518.083 689.825 518.541 689.291 519.128 688.909C519.719 688.522 520.409 688.329 521.197 688.329C521.651 688.329 522.1 688.405 522.543 688.556C522.986 688.708 523.39 688.954 523.753 689.295C524.117 689.632 524.407 690.079 524.623 690.636C524.839 691.193 524.947 691.878 524.947 692.693V693.261H518.219V692.102H523.583C523.583 691.609 523.485 691.17 523.288 690.784C523.094 690.397 522.818 690.092 522.458 689.869C522.102 689.645 521.681 689.534 521.197 689.534C520.663 689.534 520.2 689.666 519.81 689.931C519.424 690.193 519.127 690.534 518.918 690.954C518.71 691.375 518.606 691.825 518.606 692.306V693.079C518.606 693.738 518.719 694.297 518.947 694.755C519.178 695.21 519.498 695.556 519.907 695.795C520.316 696.03 520.791 696.147 521.333 696.147C521.685 696.147 522.003 696.098 522.288 696C522.575 695.897 522.824 695.746 523.032 695.545C523.24 695.34 523.401 695.087 523.515 694.784L524.81 695.147C524.674 695.587 524.445 695.973 524.123 696.306C523.801 696.636 523.403 696.893 522.93 697.079C522.456 697.261 521.924 697.352 521.333 697.352ZM526.986 697.17V688.443H528.282V689.761H528.373C528.532 689.329 528.82 688.979 529.236 688.71C529.653 688.441 530.123 688.306 530.646 688.306C530.744 688.306 530.867 688.308 531.015 688.312C531.163 688.316 531.274 688.321 531.35 688.329V689.693C531.305 689.681 531.2 689.664 531.038 689.642C530.878 689.615 530.71 689.602 530.532 689.602C530.108 689.602 529.729 689.691 529.396 689.869C529.066 690.043 528.805 690.286 528.611 690.596C528.422 690.903 528.327 691.253 528.327 691.647V697.17H526.986Z" fill="black"/>
<path d="M742.852 685.534H744.534L748.489 695.193H748.625L752.58 685.534H754.261V697.17H752.943V688.329H752.83L749.193 697.17H747.921L744.284 688.329H744.171V697.17H742.852V685.534ZM759.473 697.375C758.92 697.375 758.418 697.27 757.967 697.062C757.517 696.85 757.159 696.545 756.894 696.147C756.628 695.746 756.496 695.261 756.496 694.693C756.496 694.193 756.594 693.787 756.791 693.477C756.988 693.162 757.252 692.916 757.581 692.738C757.911 692.56 758.274 692.428 758.672 692.34C759.074 692.25 759.477 692.178 759.882 692.125C760.413 692.056 760.842 692.005 761.172 691.971C761.505 691.933 761.748 691.871 761.899 691.784C762.055 691.696 762.132 691.545 762.132 691.329V691.284C762.132 690.723 761.979 690.287 761.672 689.977C761.369 689.666 760.909 689.511 760.291 689.511C759.651 689.511 759.149 689.651 758.786 689.931C758.422 690.212 758.166 690.511 758.019 690.829L756.746 690.375C756.973 689.844 757.276 689.431 757.655 689.136C758.038 688.837 758.454 688.628 758.905 688.511C759.36 688.39 759.806 688.329 760.246 688.329C760.526 688.329 760.848 688.363 761.212 688.431C761.579 688.496 761.933 688.63 762.274 688.835C762.619 689.039 762.905 689.348 763.132 689.761C763.36 690.174 763.473 690.727 763.473 691.42V697.17H762.132V695.988H762.064C761.973 696.178 761.822 696.38 761.61 696.596C761.397 696.812 761.115 696.996 760.763 697.147C760.411 697.299 759.981 697.375 759.473 697.375ZM759.678 696.17C760.208 696.17 760.655 696.066 761.019 695.857C761.386 695.649 761.663 695.38 761.848 695.051C762.038 694.721 762.132 694.375 762.132 694.011V692.784C762.075 692.852 761.95 692.914 761.757 692.971C761.568 693.024 761.348 693.071 761.098 693.113C760.852 693.151 760.611 693.185 760.377 693.215C760.145 693.242 759.958 693.265 759.814 693.284C759.466 693.329 759.14 693.403 758.837 693.505C758.538 693.604 758.295 693.753 758.11 693.954C757.928 694.151 757.837 694.42 757.837 694.761C757.837 695.227 758.009 695.579 758.354 695.818C758.702 696.053 759.144 696.17 759.678 696.17ZM765.921 697.17V688.443H767.216V689.761H767.307C767.466 689.329 767.754 688.979 768.171 688.71C768.587 688.441 769.057 688.306 769.58 688.306C769.678 688.306 769.801 688.308 769.949 688.312C770.097 688.316 770.208 688.321 770.284 688.329V689.693C770.239 689.681 770.135 689.664 769.972 689.642C769.813 689.615 769.644 689.602 769.466 689.602C769.042 689.602 768.663 689.691 768.33 689.869C768 690.043 767.739 690.286 767.546 690.596C767.356 690.903 767.261 691.253 767.261 691.647V697.17H765.921ZM775.154 697.352C774.335 697.352 773.631 697.159 773.04 696.772C772.449 696.386 771.994 695.854 771.676 695.176C771.358 694.498 771.199 693.723 771.199 692.852C771.199 691.965 771.362 691.183 771.688 690.505C772.017 689.823 772.476 689.291 773.063 688.909C773.654 688.522 774.343 688.329 775.131 688.329C775.744 688.329 776.297 688.443 776.79 688.67C777.282 688.897 777.686 689.215 778 689.625C778.315 690.034 778.51 690.511 778.585 691.056H777.244C777.142 690.659 776.915 690.306 776.563 690C776.214 689.689 775.744 689.534 775.154 689.534C774.631 689.534 774.172 689.67 773.779 689.943C773.388 690.212 773.083 690.592 772.864 691.085C772.648 691.573 772.54 692.147 772.54 692.806C772.54 693.481 772.646 694.068 772.858 694.568C773.074 695.068 773.377 695.456 773.767 695.732C774.161 696.009 774.623 696.147 775.154 696.147C775.502 696.147 775.818 696.087 776.102 695.965C776.386 695.844 776.627 695.67 776.824 695.443C777.021 695.215 777.161 694.943 777.244 694.625H778.585C778.51 695.14 778.322 695.604 778.023 696.017C777.727 696.426 777.335 696.751 776.847 696.994C776.362 697.232 775.797 697.352 775.154 697.352ZM781.886 691.92V697.17H780.546V685.534H781.886V689.806H782C782.205 689.356 782.511 688.998 782.921 688.732C783.333 688.464 783.883 688.329 784.568 688.329C785.163 688.329 785.684 688.448 786.131 688.687C786.578 688.922 786.924 689.284 787.171 689.772C787.421 690.257 787.546 690.875 787.546 691.625V697.17H786.205V691.715C786.205 691.022 786.025 690.486 785.665 690.107C785.309 689.725 784.815 689.534 784.182 689.534C783.743 689.534 783.349 689.626 783 689.812C782.655 689.998 782.383 690.268 782.182 690.625C781.985 690.981 781.886 691.412 781.886 691.92Z" fill="black"/>
<path d="M1008.94 685.534H1010.35V693.852C1010.35 694.594 1010.21 695.225 1009.94 695.744C1009.66 696.263 1009.28 696.657 1008.78 696.926C1008.29 697.195 1007.7 697.329 1007.03 697.329C1006.39 697.329 1005.83 697.214 1005.33 696.982C1004.83 696.748 1004.44 696.414 1004.16 695.982C1003.87 695.551 1003.73 695.037 1003.73 694.443H1005.12C1005.12 694.772 1005.2 695.06 1005.36 695.306C1005.53 695.549 1005.76 695.738 1006.04 695.875C1006.33 696.011 1006.66 696.079 1007.03 696.079C1007.43 696.079 1007.78 695.994 1008.06 695.823C1008.35 695.653 1008.56 695.403 1008.71 695.073C1008.86 694.74 1008.94 694.333 1008.94 693.852V685.534ZM1018.49 693.602V688.443H1019.83V697.17H1018.49V695.693H1018.4C1018.19 696.136 1017.87 696.513 1017.44 696.823C1017.01 697.13 1016.47 697.284 1015.81 697.284C1015.26 697.284 1014.78 697.164 1014.35 696.926C1013.93 696.683 1013.59 696.32 1013.35 695.835C1013.11 695.346 1012.99 694.731 1012.99 693.988V688.443H1014.33V693.897C1014.33 694.534 1014.51 695.041 1014.86 695.42C1015.22 695.799 1015.68 695.988 1016.24 695.988C1016.57 695.988 1016.91 695.903 1017.26 695.732C1017.6 695.562 1017.9 695.301 1018.13 694.948C1018.37 694.596 1018.49 694.147 1018.49 693.602ZM1023.63 691.92V697.17H1022.28V688.443H1023.58V689.806H1023.69C1023.9 689.363 1024.21 689.007 1024.63 688.738C1025.04 688.465 1025.58 688.329 1026.24 688.329C1026.83 688.329 1027.35 688.45 1027.79 688.693C1028.23 688.931 1028.58 689.295 1028.82 689.784C1029.07 690.268 1029.19 690.882 1029.19 691.625V697.17H1027.85V691.715C1027.85 691.03 1027.68 690.496 1027.32 690.113C1026.96 689.727 1026.47 689.534 1025.85 689.534C1025.43 689.534 1025.04 689.626 1024.71 689.812C1024.37 689.998 1024.11 690.268 1023.92 690.625C1023.72 690.981 1023.63 691.412 1023.63 691.92ZM1035.3 697.352C1034.46 697.352 1033.74 697.166 1033.13 696.795C1032.52 696.42 1032.05 695.897 1031.72 695.227C1031.4 694.553 1031.24 693.768 1031.24 692.875C1031.24 691.981 1031.4 691.193 1031.72 690.511C1032.05 689.825 1032.51 689.291 1033.1 688.909C1033.69 688.522 1034.38 688.329 1035.17 688.329C1035.62 688.329 1036.07 688.405 1036.51 688.556C1036.96 688.708 1037.36 688.954 1037.72 689.295C1038.09 689.632 1038.38 690.079 1038.59 690.636C1038.81 691.193 1038.92 691.878 1038.92 692.693V693.261H1032.19V692.102H1037.55C1037.55 691.609 1037.45 691.17 1037.26 690.784C1037.06 690.397 1036.79 690.092 1036.43 689.869C1036.07 689.645 1035.65 689.534 1035.17 689.534C1034.63 689.534 1034.17 689.666 1033.78 689.931C1033.39 690.193 1033.1 690.534 1032.89 690.954C1032.68 691.375 1032.58 691.825 1032.58 692.306V693.079C1032.58 693.738 1032.69 694.297 1032.92 694.755C1033.15 695.21 1033.47 695.556 1033.88 695.795C1034.29 696.03 1034.76 696.147 1035.3 696.147C1035.66 696.147 1035.97 696.098 1036.26 696C1036.55 695.897 1036.79 695.746 1037 695.545C1037.21 695.34 1037.37 695.087 1037.49 694.784L1038.78 695.147C1038.64 695.587 1038.42 695.973 1038.09 696.306C1037.77 696.636 1037.37 696.893 1036.9 697.079C1036.43 697.261 1035.89 697.352 1035.3 697.352Z" fill="black"/>
<path d="M133.815 664.629C133.815 664.629 305.965 626.156 391.458 538.719C476.952 451.281 528.713 392.407 630.491 355.683C732.27 318.959 830.414 324.612 935.61 227.746C1040.81 130.879 1125 3 1125 3" stroke="url(#paint1_linear_19_50)" stroke-width="6" stroke-linecap="round"/>
<path d="M137.791 676.426C144.602 676.426 150.083 670.824 150.083 663.963C150.083 657.102 144.602 651.5 137.791 651.5C130.981 651.5 125.5 657.102 125.5 663.963C125.5 670.824 130.981 676.426 137.791 676.426Z" fill="white" stroke="#6A5BF1" stroke-width="3"/>
<path d="M574.759 386.164C574.759 391.413 570.577 395.627 565.468 395.627C560.359 395.627 556.176 391.413 556.176 386.164C556.176 380.915 560.359 376.701 565.468 376.701C570.577 376.701 574.759 380.915 574.759 386.164Z" fill="white" stroke="#267589" stroke-width="3"/>
<path d="M976.791 198.353C983.698 198.353 989.256 192.672 989.256 185.714C989.256 178.755 983.698 173.074 976.791 173.074C969.885 173.074 964.326 178.755 964.326 185.714C964.326 192.672 969.885 198.353 976.791 198.353Z" fill="white" stroke="#00AA55" stroke-width="3"/>
<line x1="205.787" y1="660.244" x2="205.787" y2="669.014" stroke="#727272" stroke-width="1.5"/>
<line x1="492.837" y1="660.244" x2="492.837" y2="669.014" stroke="#333333" stroke-width="1.5"/>
<line x1="765.857" y1="660.244" x2="765.857" y2="669.014" stroke="black" stroke-width="1.5"/>
<line x1="1022.69" y1="660.244" x2="1022.69" y2="669.014" stroke="black" stroke-width="1.5"/>
<line x1="977.75" y1="148" x2="977.75" y2="164.445" stroke="black" stroke-width="1.5"/>
<path d="M944.13 137.928L956.189 114.064V113.865H942.141V108.837H962.553V113.937L950.479 137.928H944.13ZM977.035 138.326C974.847 138.326 972.901 137.971 971.197 137.26C969.502 136.541 968.171 135.561 967.205 134.32C966.239 133.079 965.756 131.673 965.756 130.101C965.756 128.889 966.031 127.776 966.58 126.763C967.139 125.74 967.896 124.893 968.853 124.221C969.809 123.539 970.879 123.103 972.063 122.914V122.715C970.51 122.402 969.251 121.65 968.285 120.456C967.319 119.254 966.836 117.857 966.836 116.266C966.836 114.76 967.276 113.42 968.157 112.246C969.037 111.062 970.245 110.134 971.779 109.462C973.323 108.78 975.074 108.439 977.035 108.439C978.995 108.439 980.742 108.78 982.276 109.462C983.82 110.144 985.032 111.077 985.912 112.26C986.793 113.435 987.238 114.77 987.248 116.266C987.238 117.866 986.746 119.263 985.77 120.456C984.795 121.65 983.545 122.402 982.02 122.715V122.914C983.185 123.103 984.241 123.539 985.188 124.221C986.145 124.893 986.902 125.74 987.461 126.763C988.029 127.776 988.318 128.889 988.327 130.101C988.318 131.673 987.83 133.079 986.864 134.32C985.898 135.561 984.563 136.541 982.859 137.26C981.163 137.971 979.222 138.326 977.035 138.326ZM977.035 133.809C978.01 133.809 978.862 133.633 979.591 133.283C980.321 132.923 980.889 132.431 981.296 131.806C981.713 131.171 981.921 130.442 981.921 129.618C981.921 128.776 981.708 128.032 981.282 127.388C980.856 126.735 980.278 126.223 979.549 125.854C978.82 125.475 977.982 125.286 977.035 125.286C976.097 125.286 975.259 125.475 974.52 125.854C973.782 126.223 973.199 126.735 972.773 127.388C972.357 128.032 972.148 128.776 972.148 129.618C972.148 130.442 972.352 131.171 972.759 131.806C973.166 132.431 973.739 132.923 974.478 133.283C975.216 133.633 976.069 133.809 977.035 133.809ZM977.035 120.812C977.849 120.812 978.573 120.646 979.208 120.314C979.842 119.983 980.34 119.524 980.699 118.937C981.059 118.349 981.239 117.672 981.239 116.905C981.239 116.148 981.059 115.485 980.699 114.917C980.34 114.339 979.847 113.889 979.222 113.567C978.597 113.236 977.868 113.07 977.035 113.07C976.211 113.07 975.482 113.236 974.847 113.567C974.213 113.889 973.716 114.339 973.356 114.917C973.005 115.485 972.83 116.148 972.83 116.905C972.83 117.672 973.01 118.349 973.37 118.937C973.73 119.524 974.227 119.983 974.861 120.314C975.496 120.646 976.22 120.812 977.035 120.812ZM1002.15 134.383V133.385C1002.15 132.628 1002.31 131.933 1002.63 131.299C1002.96 130.659 1003.43 130.148 1004.05 129.766C1004.67 129.378 1005.42 129.184 1006.32 129.184C1007.22 129.184 1007.98 129.375 1008.6 129.757C1009.22 130.138 1009.69 130.649 1010 131.289C1010.32 131.923 1010.48 132.622 1010.48 133.385V134.383C1010.48 135.14 1010.32 135.838 1010 136.478C1009.68 137.112 1009.21 137.62 1008.59 138.002C1007.97 138.39 1007.21 138.584 1006.32 138.584C1005.41 138.584 1004.65 138.39 1004.04 138.002C1003.42 137.62 1002.95 137.112 1002.63 136.478C1002.31 135.838 1002.15 135.14 1002.15 134.383ZM1004.84 133.385V134.383C1004.84 134.82 1004.94 135.232 1005.15 135.62C1005.37 136.008 1005.76 136.201 1006.32 136.201C1006.88 136.201 1007.26 136.011 1007.46 135.629C1007.67 135.247 1007.78 134.832 1007.78 134.383V133.385C1007.78 132.936 1007.68 132.517 1007.48 132.13C1007.28 131.742 1006.9 131.548 1006.32 131.548C1005.76 131.548 1005.38 131.742 1005.16 132.13C1004.95 132.517 1004.84 132.936 1004.84 133.385ZM992.449 123.562V122.564C992.449 121.801 992.612 121.102 992.938 120.468C993.264 119.828 993.735 119.317 994.351 118.936C994.972 118.554 995.723 118.363 996.604 118.363C997.515 118.363 998.278 118.554 998.893 118.936C999.509 119.317 999.977 119.828 1000.3 120.468C1000.62 121.102 1000.78 121.801 1000.78 122.564V123.562C1000.78 124.325 1000.61 125.023 1000.29 125.657C999.967 126.291 999.497 126.799 998.875 127.181C998.259 127.556 997.502 127.744 996.604 127.744C995.705 127.744 994.945 127.553 994.323 127.172C993.707 126.784 993.24 126.276 992.92 125.648C992.606 125.014 992.449 124.319 992.449 123.562ZM995.154 122.564V123.562C995.154 124.011 995.259 124.426 995.468 124.808C995.683 125.19 996.062 125.38 996.604 125.38C997.17 125.38 997.555 125.19 997.758 124.808C997.967 124.426 998.072 124.011 998.072 123.562V122.564C998.072 122.115 997.973 121.696 997.776 121.309C997.579 120.921 997.188 120.727 996.604 120.727C996.056 120.727 995.677 120.924 995.468 121.318C995.259 121.712 995.154 122.127 995.154 122.564ZM993.667 137.928L1006.67 119.019H1009.09L996.087 137.928H993.667Z" fill="black"/>
<path d="M138.881 628.055V644.5" stroke="black" stroke-width="1.5"/>
<path d="M127.199 605.491V622.946H123.509V608.994H123.406L119.409 611.5V608.227L123.73 605.491H127.199ZM137.722 623.185C136.518 623.185 135.444 622.963 134.501 622.52C133.563 622.077 132.819 621.466 132.268 620.687C131.717 619.909 131.43 619.017 131.407 618.011H134.987C135.026 618.687 135.31 619.236 135.839 619.656C136.367 620.077 136.995 620.287 137.722 620.287C138.302 620.287 138.813 620.159 139.256 619.903C139.705 619.642 140.055 619.281 140.305 618.821C140.56 618.355 140.688 617.821 140.688 617.219C140.688 616.605 140.558 616.065 140.296 615.599C140.04 615.133 139.685 614.77 139.231 614.508C138.776 614.247 138.256 614.114 137.671 614.108C137.16 614.108 136.663 614.213 136.18 614.423C135.702 614.633 135.33 614.92 135.063 615.284L131.782 614.696L132.609 605.491H143.279V608.508H135.651L135.2 612.881H135.302C135.609 612.449 136.072 612.091 136.691 611.807C137.31 611.523 138.004 611.381 138.771 611.381C139.822 611.381 140.759 611.628 141.583 612.122C142.407 612.616 143.058 613.295 143.535 614.159C144.012 615.017 144.248 616.006 144.242 617.125C144.248 618.301 143.975 619.347 143.424 620.261C142.879 621.17 142.114 621.886 141.131 622.409C140.154 622.926 139.018 623.185 137.722 623.185ZM152.714 620.764V620.151C152.714 619.685 152.812 619.257 153.009 618.866C153.21 618.472 153.5 618.158 153.879 617.923C154.261 617.685 154.727 617.565 155.276 617.565C155.833 617.565 156.301 617.683 156.68 617.918C157.062 618.152 157.35 618.467 157.543 618.861C157.74 619.251 157.839 619.681 157.839 620.151V620.764C157.839 621.23 157.74 621.66 157.543 622.054C157.346 622.444 157.057 622.757 156.674 622.991C156.291 623.23 155.826 623.349 155.276 623.349C154.719 623.349 154.252 623.23 153.873 622.991C153.494 622.757 153.206 622.444 153.009 622.054C152.812 621.66 152.714 621.23 152.714 620.764ZM154.367 620.151V620.764C154.367 621.033 154.432 621.287 154.56 621.526C154.693 621.764 154.932 621.883 155.276 621.883C155.621 621.883 155.856 621.766 155.981 621.531C156.11 621.296 156.174 621.041 156.174 620.764V620.151C156.174 619.874 156.113 619.616 155.992 619.378C155.871 619.139 155.632 619.02 155.276 619.02C154.935 619.02 154.699 619.139 154.566 619.378C154.433 619.616 154.367 619.874 154.367 620.151ZM146.742 614.105V613.491C146.742 613.022 146.843 612.592 147.043 612.202C147.244 611.808 147.534 611.493 147.913 611.258C148.295 611.024 148.757 610.906 149.299 610.906C149.86 610.906 150.329 611.024 150.708 611.258C151.087 611.493 151.375 611.808 151.572 612.202C151.769 612.592 151.867 613.022 151.867 613.491V614.105C151.867 614.575 151.767 615.005 151.566 615.395C151.369 615.785 151.079 616.097 150.697 616.332C150.318 616.563 149.852 616.679 149.299 616.679C148.746 616.679 148.278 616.562 147.896 616.327C147.517 616.088 147.229 615.776 147.032 615.389C146.839 614.999 146.742 614.571 146.742 614.105ZM148.407 613.491V614.105C148.407 614.382 148.471 614.637 148.6 614.872C148.733 615.107 148.966 615.224 149.299 615.224C149.647 615.224 149.884 615.107 150.009 614.872C150.138 614.637 150.202 614.382 150.202 614.105V613.491C150.202 613.215 150.142 612.957 150.021 612.719C149.899 612.48 149.659 612.361 149.299 612.361C148.962 612.361 148.729 612.482 148.6 612.724C148.471 612.967 148.407 613.222 148.407 613.491ZM147.492 622.946L155.492 611.31H156.981L148.981 622.946H147.492Z" fill="black"/>
<defs>
<linearGradient id="paint0_linear_19_50" x1="0" y1="664.581" x2="1200" y2="664.581" gradientUnits="userSpaceOnUse">
<stop stop-color="#C0C0C0"/>
<stop offset="0.64"/>
</linearGradient>
<linearGradient id="paint1_linear_19_50" x1="541.14" y1="208.498" x2="541.14" y2="670.638" gradientUnits="userSpaceOnUse">
<stop stop-color="#00AA55"/>
<stop offset="1" stop-color="#6A5BF1"/>
</linearGradient>
<clipPath id="clip0_19_50">
<rect width="303" height="351" fill="white" transform="translate(897 313)"/>
</clipPath>
</defs>
</svg>
