<svg xmlns="http://www.w3.org/2000/svg" width="256" height="256" viewBox="0 0 100 100"><rect width="100" height="100" rx="20" fill="#45a0f5"></rect><path fill="#fff" d="M28.04 28.67L28.04 28.67Q32.66 28.67 36.57 30.27Q40.48 31.87 43.33 34.71L43.33 34.71L39.77 37.94Q37.61 35.67 34.61 34.36Q31.60 33.05 28.02 33.05L28.02 33.05Q23.34 33.05 19.63 35.25Q15.93 37.45 13.78 41.28Q11.64 45.11 11.64 50L11.64 50Q11.64 54.87 13.77 58.70Q15.90 62.52 19.57 64.74Q23.23 66.95 27.82 66.95L27.82 66.95Q31.95 66.95 35.22 65.15Q38.49 63.34 40.50 60.17Q42.51 57 42.84 52.90L42.84 52.90L27.66 52.90L27.66 48.52L47.62 48.52Q47.70 49.26 47.76 50.03Q47.81 50.79 47.81 51.64L47.81 51.64Q47.81 55.88 46.34 59.47Q44.86 63.07 42.18 65.72Q39.50 68.38 35.85 69.85Q32.20 71.33 27.82 71.33L27.82 71.33Q23.29 71.33 19.44 69.74Q15.60 68.16 12.74 65.29Q9.89 62.41 8.30 58.52Q6.71 54.62 6.71 50L6.71 50Q6.71 45.38 8.30 41.48Q9.89 37.59 12.76 34.71Q15.63 31.84 19.53 30.26Q23.42 28.67 28.04 28.67ZM73.52 28.67L73.52 28.67Q78.14 28.67 82.05 30.27Q85.96 31.87 88.80 34.71L88.80 34.71L85.25 37.94Q83.09 35.67 80.08 34.36Q77.07 33.05 73.49 33.05L73.49 33.05Q68.81 33.05 65.11 35.25Q61.40 37.45 59.26 41.28Q57.11 45.11 57.11 50L57.11 50Q57.11 54.87 59.24 58.70Q61.38 62.52 65.04 64.74Q68.70 66.95 73.30 66.95L73.30 66.95Q77.43 66.95 80.69 65.15Q83.96 63.34 85.97 60.17Q87.98 57 88.31 52.90L88.31 52.90L73.13 52.90L73.13 48.52L93.09 48.52Q93.18 49.26 93.23 50.03Q93.29 50.79 93.29 51.64L93.29 51.64Q93.29 55.88 91.81 59.47Q90.33 63.07 87.65 65.72Q84.97 68.38 81.32 69.85Q77.67 71.33 73.30 71.33L73.30 71.33Q68.76 71.33 64.92 69.74Q61.07 68.16 58.22 65.29Q55.36 62.41 53.77 58.52Q52.19 54.62 52.19 50L52.19 50Q52.19 45.38 53.77 41.48Q55.36 37.59 58.23 34.71Q61.10 31.84 65.00 30.26Q68.89 28.67 73.52 28.67Z"></path></svg>